<svg width="400" height="385" viewBox="0 0 400 385" fill="none" xmlns="http://www.w3.org/2000/svg">
<g clip-path="url(#clip0_38_2)">
<path d="M360.574 63.0638C356.37 63.8749 352.572 65.8926 349.189 68.395C342.384 73.5184 337.052 80.3332 332.077 87.2172C324.946 97.3553 317.814 109.392 311.523 120.183C288.724 159.648 265.549 199.973 236.024 235.105C231.652 240.07 227.102 245.005 222.275 249.535C181.978 288.792 128.289 301.719 74.1543 287.556C47.4876 281.967 25.6281 261.948 12.7695 238.616C-0.474807 215.194 -3.97629 186.244 4.9159 160.706C10.4747 143.743 21.088 128.887 33.1355 116.009C51.0484 96.7025 72.3739 79.7991 97.3392 70.6798C126.667 59.6218 158.942 61.5209 187.577 73.7855C203.64 80.2343 221.355 92.6473 218.022 112.29C217.27 116.682 215.658 120.866 213.175 124.585L212.364 124.011C219.199 113.299 218.595 99.4719 209.654 90.2438C203.412 83.5675 195.114 79.3046 186.696 75.9219C158.586 64.4189 127.102 62.9748 98.6844 74.2405C74.5895 83.5576 53.9367 100.214 36.6567 119.224C5.31155 152.052 -5.01486 195.017 18.0613 235.649C25.3214 248.497 35.2819 259.881 47.27 268.506C55.8259 274.816 65.3907 278.713 75.7863 281.067C84.0949 283.095 92.5123 284.638 100.999 285.439C154.807 291.146 201.474 266.923 234.56 225.352C259.1 195.116 278.773 161.141 298.813 127.77C311.137 108.245 328.121 78.1671 347.774 66.2091C351.632 63.9342 355.984 62.2627 360.465 62.0649L360.584 63.0441L360.574 63.0638Z" fill="#141515"/>
<path d="M87.6063 188.924C86.4392 191.743 86.8546 195.502 88.5658 197.925C93.1751 203.978 108.16 200.942 114.471 198.538C126.429 193.692 136.33 184.454 145.143 175.087C154.135 165.434 162.156 154.821 169.357 143.763C192.394 111.024 216.449 79.0078 242.601 48.6826C255.866 33.7277 269.298 18.5453 285.638 6.82467C291.316 3.1354 298.012 -1.34514 305.094 0.484657C305.223 0.603346 196.914 198.113 196.894 198.4L196.024 197.925C196.212 198.222 304.194 -1.85947 304.214 1.30559C293.858 -0.771477 278.625 14.134 271.335 20.8597C233.788 58.5734 203.076 102.538 172.809 146.137C169.219 151.775 165.43 157.333 161.395 162.664C148.833 178.984 131.662 198.865 111.098 204.443C102.957 206.283 90.633 208.409 86.3897 199.072C85.005 195.532 85.8655 192.07 86.6667 188.598L87.5965 188.934L87.6063 188.924Z" fill="#141515"/>
<path d="M217.369 107.058C226.607 97.7411 236.874 89.136 248.061 82.2421C263.126 73.0734 280.307 66.8026 298.042 66.1696C314.184 65.6256 331.85 68.2664 344.164 79.631C357.814 92.2615 359.308 113.734 353.007 130.361C348.348 141.617 339.219 150.281 329.248 156.849C323.274 160.686 316.944 164.079 310.158 166.324C309.901 166.383 309.852 166.443 309.238 166.522C308.843 166.571 308.388 166.482 308.042 166.383C305.203 165.424 302.196 163.149 302.522 159.816C302.967 156.72 305.846 155.088 308.091 153.891C322.72 146.948 340.396 147.284 349.327 162.704C356.419 174.87 357.755 192.831 356.34 206.599C352.641 236.143 328.19 261.84 300.87 271.938C288.783 276.468 273.126 270.801 270.356 257.26C267.854 244.956 274.115 233.087 280.564 223.077C297.31 198.568 330.435 170.775 362.067 176.996C383.254 181.714 397.547 202.534 399.545 223.384C403.897 265.727 375.549 312.342 345.252 340.017C321.365 362.063 290.475 375.337 258.764 381.33C235.727 385.415 211.592 387.038 188.704 381.182C185.846 380.381 183.027 379.234 180.376 378.146C172.196 374.931 163.976 371.667 156.439 367.009C141.197 357.771 130.099 342.964 123.333 326.654C114.204 305.043 110.692 281.453 108.952 258.21L109.941 258.14C112.374 286.606 117.329 316.902 132.918 341.362C142.364 356.257 156.677 366.692 173.046 372.933C178.408 374.981 183.838 377.424 189.318 379.026C194.857 380.51 200.593 381.39 206.35 381.884C246.251 384.743 288.764 375.169 322.621 353.616C361.978 328.652 400.9 271.869 395.905 223.819C394.233 207.114 384.52 190.725 369.159 183.366C337.972 169.331 300.435 200.586 283.838 225.263C277.033 235.787 268.615 251.909 277.636 263.333C281.058 267.349 286.449 269.416 291.691 269.475C300.069 269.416 307.725 264.846 314.807 260.583C334.955 247.686 351.325 226.351 352.621 201.872C353.561 178.905 348.081 146.918 317.676 154.603C315.767 155.009 304.797 158.312 306.597 160.993C307.033 161.665 308.328 162.496 309.169 162.734C309.149 162.724 309.021 162.734 308.971 162.714C308.724 162.743 309.021 162.684 309.12 162.654C310.079 162.378 311.068 161.992 312.028 161.616C327.438 155.177 342.789 144.683 349.674 128.976C351.899 123.784 352.75 118.126 353.046 112.528C353.323 106.87 352.7 101.183 350.92 95.8717C344.105 75.4076 322.067 69.0082 302.453 68.6818C285.114 68.4247 267.883 73.2415 252.76 81.6289C243.877 86.4358 235.49 92.4989 227.755 98.9675C224.679 101.638 220.979 104.932 218.051 107.76L217.359 107.058H217.369Z" fill="#141515"/>
<path d="M302.878 0L191.672 201.387H206.083L312.829 0H302.878Z" fill="#141515"/>
<path d="M97.8618 192.637C99.6898 187.484 98.6759 182.421 95.5971 181.329C92.5183 180.237 88.5406 183.529 86.7125 188.683C84.8845 193.836 85.8984 198.899 88.9772 199.991C92.056 201.083 96.0337 197.791 97.8618 192.637Z" fill="#141515"/>
</g>
<defs>
<clipPath id="clip0_38_2">
<rect width="400" height="385" fill="white"/>
</clipPath>
</defs>
</svg>
