<?xml version="1.0" encoding="UTF-8"?><svg id="a" xmlns="http://www.w3.org/2000/svg" viewBox="0 0 1268.15 59.09"><defs><style>.b{fill:#fff;}</style></defs><path class="b" d="M818.56,28.3c.34-.02.68-.05,1.02-.08l-.03.02c-.55.27-1.1.52-1.66.76l.67-.69ZM813.2,28.36c.21.01.42.03.63.04-.06,0-.12.02-.17.03l-.46-.06ZM820.73,28.12c.89-.09,1.77-.19,2.64-.29l1.38-.15c2.14-.23,4.29-.59,6.33-.97-1.34.31-2.92.61-4.94.85-2.12.26-3.83.44-5.41.56ZM809.78,18.68h.03c.75,0,1.51-.24,2.18-.7.35-.24.67-.53.93-.85-.05.07-.1.14-.16.21-.71.87-1.66,1.34-2.69,1.34-.07,0-.26-.01-.29-.01ZM807.95,17.75c-.22-.24-.4-.51-.53-.8-.15-.35-.32-.98-.01-1.65-.09.38.04.84.39,1.39.03.19.05.36.06.5.02.22.05.4.09.56ZM807.81,14.69c.26-.26.57-.4.92-.4,0,0,.02,0,.02,0-.15.04-.29.1-.44.18-.21.05-.38.13-.5.21ZM803.96,14.48c1.12-1.71,2.76-3.21,4.71-3.66.26-.06.53-.1.8-.1-1.82.2-3.57,1.48-4.65,2.69-.31.35-.6.71-.86,1.08Z"/><path d="M809.57,10.22c-.34,0-.68.04-1.02.12-3.04.7-5.44,3.8-6.36,6.64-.93,2.88-.3,5.86,1.76,8.09,1.98,2.15,4.71,3.16,7.52,3.55-3.3.57-6.5,1.75-9.41,3.39-1.25.71-8.12,4.49-5.71,6.54.91.77,2.67.9,4.01.9.27,0,.53,0,.75-.01,1.9-.06,3.79-.51,5.55-1.23,4.51-1.83,8.04-5.35,11.4-8.76.57-.24,1.14-.5,1.69-.77,2.16-.15,4.31-.38,6.43-.64,7.93-.96,9.11-2.75,15.31-2.75.98,0,2.08.04,3.35.14,0,0,0,0,.01,0,.18,0,.09-.37-.07-.39-1.57-.22-2.71-.39-4.04-.39-1.06,0-2.23.11-3.83.39-2.47-3.53-5.7-6.43-9.51-8.45-1.86-.98-3.83-1.75-5.86-2.26-1.1-.28-2.26-.56-3.4-.56-.69,0-1.36.1-2.02.37-.21.09-.13.41-.03.54,4.17,5.69,10.8,10.06,17.92,10.93-3.12.61-6.23,1.22-9.34,1.55-2.96.32-6.18.75-9.34.75-2.13,0-4.23-.2-6.2-.75-2.85-.81-5.75-2.82-6.44-5.87-.61-2.71.7-5.57,2.49-7.56,1.15-1.28,3-2.55,4.77-2.55.88,0,1.73.31,2.46,1.08,1.55,1.63,1.04,4.11-.72,5.29-.56.38-1.22.61-1.9.61-.18,0-.36-.02-.55-.05-1.04-.2-.8-.4-.99-1.63-.59-.89-.52-1.41.23-1.55.21-.13.41-.2.6-.2.48,0,.87.44,1.18,1.31,0,.21.24.47.43.47.09,0,.16-.06.19-.21.23-1.35-.96-2.53-2.16-2.53-.5,0-1.01.21-1.41.7-1.61,1.95.31,4.56,2.5,4.69.08,0,.16,0,.24,0,2.64,0,4.56-2.75,4.04-5.27-.45-2.18-2.4-3.7-4.53-3.7h0ZM834.52,25.04c-1.02-.15-2.04-.3-3.05-.55-2-.5-3.94-1.23-5.76-2.18-3.51-1.82-6.52-4.41-8.88-7.57.49-.14,1-.2,1.51-.2,1.38,0,2.8.42,4.08.8,1.87.56,3.67,1.33,5.38,2.28,3.3,1.85,6.13,4.4,8.37,7.44-1.12-.26-2.09-1.02-3.08-1.63-1.35-.83-2.71-1.67-4.06-2.5-2.7-1.66-5.38-3.34-8.15-4.88-.03-.02-.05-.02-.07-.02-.12,0-.09.25.01.32,3.11,2.14,6.34,4.09,9.54,6.09,1.39.87,2.76,1.78,4.17,2.61h0ZM815.61,28.84c.58,0,1.16-.01,1.75-.03-.02.02-.04.04-.07.07-2.37.76-4.69,1.71-7.02,2.59-3.71,1.41-7.49,2.73-11.11,4.37-.18.08-.04.42.14.42.01,0,.03,0,.04,0,3.7-1.14,7.31-2.59,10.94-3.92,1.83-.67,3.68-1.29,5.51-1.98-4.18,4.11-9.19,8.22-15.11,8.22-.72,0-1.46-.06-2.21-.19-.3-.05-.71-.08-.99-.21-1.08-.51-.77-1-.1-1.77.54-.63,1.2-1.15,1.85-1.64,1.55-1.17,3.22-2.19,4.97-3.03,3.2-1.55,6.61-2.43,10.11-2.92.43.01.86.02,1.28.02h0Z"/><path class="b" d="M800.23,30.45c-.45,0-.89-.01-1.35-.04.37.01.74.02,1.11.02.67,0,1.35-.02,2.02-.05-.59.05-1.18.08-1.78.08Z"/><path d="M785.89,21.73c-1.64,0-3.17.36-4.35,1.38-.17.15,0,.48.12.59,4.82,4.19,11.84,7.24,18.57,7.24,2.15,0,4.26-.31,6.27-.99.14.09.28.18.42.27.06.04.12.06.17.06.27,0,.21-.63-.07-.81-4.1-2.69-8.56-4.78-13.28-6.13-2.16-.62-5.15-1.6-7.86-1.6h0ZM799.99,29.92c-2.13,0-4.26-.19-6.44-.72-4.14-1.01-7.97-2.97-11.23-5.71.96-.68,2.07-.9,3.22-.9,1.06,0,2.14.19,3.16.36,2.11.37,4.19.88,6.23,1.53,3.85,1.22,7.52,2.96,10.94,5.09-2,.2-3.94.36-5.89.36h0Z"/><path class="b" d="M758.51,45.07c-.27,0-.54-.04-.8-.1-1.95-.45-3.59-1.96-4.71-3.67.26.37.55.73.87,1.08,1.08,1.2,2.83,2.48,4.65,2.69ZM757.77,41.49c-.35,0-.66-.13-.92-.4.13.09.29.17.51.21.15.08.3.15.44.18h-.02ZM756.44,40.49c-.31-.67-.14-1.3.01-1.65.13-.29.31-.57.53-.8-.04.16-.07.34-.09.56-.02.14-.03.31-.06.5-.35.55-.48,1-.39,1.39ZM761.96,38.65c-.26-.32-.57-.61-.93-.85-.67-.46-1.43-.7-2.18-.7h-.03s.22-.01.29-.01c1.03,0,1.99.48,2.69,1.34.06.07.11.14.16.21ZM788.76,30.73c-.88-.15-1.74-.31-2.6-.47l.03-.04c.85.17,1.71.34,2.57.51ZM785.63,30.11s.01,0,.02,0h-.05s.03,0,.03,0ZM783.16,29.67c-2.88-.57-6.14-1.21-9.38-1.56l-1.38-.15c-.87-.1-1.74-.2-2.63-.29,1.57.13,3.28.3,5.4.56,3.2.39,6.46,1.05,9.61,1.7.12.02.24.05.37.07l-.17.02-1.82-.36ZM767.6,27.48l-.68-.69c.56.24,1.12.49,1.66.76l.03.02c-.34-.03-.68-.06-1.02-.08ZM762.69,27.37c.06,0,.12.02.17.03-.21.01-.43.02-.63.04l.46-.06Z"/><path d="M749.41,16.33c-1.34,0-3.1.13-4.01.9-2.42,2.05,4.45,5.83,5.71,6.54,2.91,1.64,6.11,2.82,9.41,3.39-2.82.39-5.55,1.4-7.52,3.55-2.06,2.24-2.69,5.21-1.76,8.09.92,2.84,3.31,5.94,6.36,6.64.34.08.68.12,1.02.12,2.14,0,4.08-1.52,4.53-3.7.52-2.52-1.4-5.27-4.04-5.27-.08,0-.16,0-.24,0-2.19.14-4.11,2.74-2.5,4.69.4.49.91.7,1.41.7,1.2,0,2.39-1.18,2.16-2.53-.03-.15-.1-.21-.19-.21-.18,0-.43.26-.43.47-.31.87-.7,1.31-1.18,1.31-.19,0-.39-.07-.6-.2-.75-.14-.83-.66-.23-1.55.2-1.22-.04-1.43.99-1.63.18-.04.36-.05.55-.05.68,0,1.34.23,1.9.61,1.76,1.19,2.27,3.66.72,5.29-.74.77-1.59,1.08-2.46,1.08-1.77,0-3.62-1.27-4.77-2.55-1.79-1.99-3.1-4.85-2.49-7.56.69-3.05,3.59-5.06,6.44-5.87,1.97-.56,4.07-.75,6.2-.75,3.16,0,6.38.43,9.34.75,3.11.34,6.22.94,9.34,1.55-7.11.87-13.75,5.24-17.92,10.93-.1.13-.17.45.03.54.65.27,1.33.37,2.02.37,1.14,0,2.3-.28,3.4-.56,2.04-.51,4.01-1.28,5.86-2.26,3.81-2.02,7.04-4.93,9.51-8.45,4,.76,8.02,1.41,12.05,1.41,1.59,0,3.19-.1,4.79-.34.15-.02.24-.39.07-.39,0,0,0,0-.01,0-.91.07-1.82.1-2.73.1-8.39,0-16.61-2.78-24.89-3.78-2.12-.26-4.27-.49-6.43-.64-.56-.27-1.12-.53-1.69-.77-3.36-3.42-6.89-6.94-11.4-8.76-1.76-.71-3.65-1.17-5.55-1.23-.23,0-.48-.01-.75-.01h0ZM763.36,26.96c-3.5-.49-6.91-1.36-10.11-2.92-1.75-.85-3.42-1.86-4.97-3.03-.66-.5-1.31-1.02-1.85-1.64-.66-.77-.97-1.26.1-1.77.28-.13.69-.16.99-.21.75-.13,1.49-.19,2.21-.19,5.92,0,10.93,4.11,15.11,8.22-1.83-.69-3.68-1.31-5.51-1.98-3.63-1.33-7.25-2.77-10.94-3.92-.01,0-.03,0-.04,0-.18,0-.33.34-.14.42,3.62,1.64,7.39,2.97,11.11,4.37,2.33.88,4.65,1.83,7.02,2.59.02.02.04.04.07.07-.58-.02-1.17-.03-1.75-.03-.43,0-.86,0-1.28.02h0ZM785.19,30.73c-2.24,3.04-5.07,5.59-8.37,7.44-1.7.95-3.51,1.73-5.38,2.28-1.27.38-2.7.8-4.08.8-.51,0-1.02-.06-1.51-.2,2.36-3.16,5.37-5.75,8.88-7.57,1.83-.95,3.77-1.68,5.76-2.18,1.01-.25,2.03-.4,3.05-.55-1.41.83-2.78,1.74-4.17,2.61-3.2,2-6.43,3.95-9.54,6.09-.11.07-.13.32-.01.32.02,0,.04,0,.07-.02,2.77-1.53,5.45-3.22,8.15-4.88,1.35-.83,2.71-1.67,4.06-2.5.99-.61,1.96-1.37,3.08-1.63h0Z"/><path class="b" d="M750.9,25.55c-.67-.03-1.34-.05-2.02-.05-.38,0-.75,0-1.11.02.45-.03.9-.04,1.35-.04.6,0,1.2.03,1.78.08Z"/><path d="M749.11,24.97c-6.73,0-13.75,3.05-18.57,7.24-.13.11-.29.44-.12.59,1.18,1.02,2.71,1.38,4.35,1.38,2.7,0,5.7-.98,7.86-1.6,4.72-1.35,9.18-3.44,13.28-6.13.28-.18.33-.81.07-.81-.05,0-.1.02-.17.06-.14.09-.28.18-.43.27-2.01-.68-4.12-.99-6.27-.99h0ZM734.43,33.34c-1.15,0-2.26-.22-3.22-.9,3.26-2.74,7.08-4.7,11.23-5.71,2.18-.53,4.31-.72,6.44-.72,1.94,0,3.89.16,5.89.36-3.43,2.13-7.09,3.86-10.94,5.09-2.04.65-4.13,1.16-6.23,1.53-1.01.18-2.1.36-3.16.36h0Z"/><path class="b" d="M716.76,29.47h-.38c.48-.04.96-.08,1.43-.12l-.03.02c-.55.27-1.1.52-1.67.76l.64-.66ZM711.44,29.48c.21.01.42.03.63.04-.06,0-.11.02-.17.03l-.45-.06ZM718.96,29.24c.89-.09,1.77-.19,2.64-.29l1.38-.15c3.23-.35,6.5-1,9.38-1.56l1.82-.36.17.02c-.12.02-.24.05-.37.08-3.15.65-6.41,1.31-9.61,1.7-2.12.26-3.84.44-5.41.56ZM734.8,26.79h.05s-.01.01-.02.02l-.03-.02ZM735.36,26.65c.85-.16,1.72-.32,2.6-.47-.86.16-1.72.33-2.57.51l-.03-.04ZM708.01,19.8h.03c.75,0,1.51-.24,2.18-.7.35-.24.66-.52.92-.84-.05.07-.1.14-.16.21-.71.87-1.66,1.35-2.69,1.35-.07,0-.26-.01-.29-.01ZM706.18,18.87c-.22-.24-.4-.51-.53-.8-.15-.35-.32-.97-.01-1.65-.08.38.04.84.39,1.38.03.19.04.36.06.5.02.22.05.4.09.56ZM706.05,15.82c.26-.26.57-.4.92-.4,0,0,.02,0,.02,0-.15.04-.29.1-.44.18-.21.05-.38.13-.5.21ZM702.21,15.59c1.12-1.7,2.75-3.2,4.7-3.65.26-.06.54-.1.81-.1-1.82.2-3.57,1.48-4.65,2.69-.31.34-.59.7-.85,1.06Z"/><path d="M707.81,11.34c-.34,0-.68.04-1.02.12-3.04.7-5.44,3.8-6.36,6.64-.93,2.88-.3,5.86,1.76,8.09,1.98,2.15,4.71,3.16,7.52,3.55-3.3.57-6.5,1.75-9.41,3.39-1.25.71-8.12,4.49-5.71,6.54.91.77,2.67.9,4.01.9.27,0,.53,0,.75-.01,1.9-.05,3.79-.51,5.55-1.23,4.51-1.83,8.04-5.35,11.4-8.76.57-.24,1.14-.5,1.69-.77,2.16-.15,4.31-.38,6.43-.64,8.28-1,16.51-3.78,24.89-3.78.91,0,1.82.03,2.73.1,0,0,0,0,.01,0,.18,0,.09-.37-.07-.39-1.6-.24-3.19-.34-4.79-.34-4.03,0-8.04.65-12.05,1.41-2.47-3.53-5.7-6.43-9.51-8.45-1.86-.98-3.83-1.75-5.86-2.26-1.1-.28-2.26-.56-3.4-.56-.69,0-1.36.1-2.02.37-.21.09-.13.41-.03.54,4.17,5.69,10.8,10.06,17.92,10.93-3.12.61-6.23,1.22-9.34,1.55-2.96.32-6.18.75-9.34.75-2.13,0-4.23-.2-6.2-.75-2.85-.81-5.75-2.82-6.44-5.87-.61-2.71.7-5.57,2.49-7.56,1.15-1.28,3-2.55,4.77-2.55.88,0,1.73.31,2.46,1.08,1.55,1.63,1.04,4.11-.72,5.29-.56.38-1.22.61-1.9.61-.18,0-.36-.02-.55-.05-1.04-.2-.8-.4-.99-1.63-.59-.89-.52-1.41.23-1.55.21-.13.41-.2.6-.2.48,0,.87.44,1.18,1.31,0,.21.24.47.43.47.09,0,.16-.06.19-.21.23-1.35-.96-2.53-2.16-2.53-.5,0-1.01.21-1.41.7-1.61,1.95.31,4.56,2.5,4.69.08,0,.16,0,.24,0,2.64,0,4.56-2.75,4.04-5.27-.45-2.18-2.4-3.7-4.53-3.7h0ZM732.75,26.16c-1.02-.15-2.04-.3-3.05-.55-2-.5-3.94-1.23-5.76-2.18-3.51-1.82-6.52-4.41-8.88-7.57.49-.14,1-.2,1.51-.2,1.38,0,2.8.42,4.08.8,1.87.56,3.68,1.33,5.38,2.28,3.3,1.85,6.13,4.4,8.37,7.44-1.12-.26-2.09-1.02-3.08-1.63-1.35-.83-2.71-1.67-4.06-2.5-2.7-1.66-5.38-3.34-8.15-4.88-.03-.02-.05-.02-.07-.02-.12,0-.09.25.01.32,3.11,2.14,6.34,4.09,9.54,6.09,1.39.87,2.76,1.78,4.17,2.61h0ZM713.85,29.97c.58,0,1.16-.01,1.75-.03-.02.02-.04.04-.07.07-2.37.76-4.69,1.71-7.02,2.59-3.71,1.41-7.49,2.73-11.11,4.37-.18.08-.04.42.14.42.01,0,.03,0,.04,0,3.7-1.14,7.31-2.59,10.94-3.92,1.83-.67,3.68-1.29,5.51-1.98-4.18,4.11-9.19,8.22-15.11,8.22-.72,0-1.46-.06-2.21-.19-.3-.05-.71-.08-.99-.21-1.08-.51-.77-1-.1-1.77.54-.63,1.2-1.15,1.85-1.64,1.55-1.17,3.22-2.19,4.97-3.03,3.2-1.55,6.61-2.43,10.11-2.92.43.01.86.02,1.29.02h0Z"/><path class="b" d="M698.31,31.44c-.45,0-.9-.01-1.35-.04.37.01.74.02,1.12.02.68,0,1.35-.02,2.02-.05-.59.05-1.18.08-1.79.08Z"/><path d="M683.97,22.72c-1.64,0-3.17.36-4.35,1.38-.17.15,0,.48.12.59,4.82,4.19,11.84,7.24,18.57,7.24,2.15,0,4.26-.31,6.27-.99.14.09.28.18.43.27.06.04.12.06.17.06.27,0,.21-.63-.07-.81-4.1-2.69-8.56-4.78-13.28-6.13-2.16-.62-5.15-1.6-7.86-1.6h0ZM698.08,30.91c-2.14,0-4.26-.19-6.44-.72-4.14-1.01-7.97-2.97-11.23-5.71.96-.68,2.07-.9,3.22-.9,1.06,0,2.14.19,3.16.36,2.11.37,4.19.88,6.23,1.53,3.85,1.22,7.52,2.96,10.94,5.09-2,.2-3.94.36-5.89.36h0Z"/><path class="b" d="M656.6,46.06c-.27,0-.54-.04-.8-.1-1.95-.45-3.59-1.96-4.71-3.67.26.37.55.73.87,1.08,1.08,1.2,2.83,2.49,4.65,2.69ZM655.86,42.48c-.35,0-.66-.13-.92-.4.13.09.29.17.51.21.15.08.3.15.44.18h-.02ZM654.52,41.48c-.31-.67-.14-1.3.01-1.65.13-.29.31-.57.53-.8-.04.16-.07.34-.09.56-.02.14-.03.31-.06.5-.35.55-.48,1-.39,1.39ZM660.04,39.64c-.26-.32-.58-.61-.93-.85-.67-.46-1.43-.7-2.18-.7h-.03s.22-.01.29-.01c1.03,0,1.99.48,2.69,1.34.06.07.11.14.16.21ZM686.85,31.72c-.88-.15-1.75-.31-2.61-.47l.03-.04c.86.17,1.72.35,2.58.51ZM683.71,31.1s.01,0,.02,0h-.05s.03,0,.03,0ZM681.25,30.66c-2.88-.57-6.14-1.21-9.38-1.56l-1.38-.15c-.87-.1-1.74-.2-2.63-.29,1.57.13,3.28.3,5.4.56,3.2.39,6.46,1.05,9.61,1.7.12.03.24.05.37.08l-.17.02-1.82-.36ZM665.7,28.47l-.69-.69c.56.24,1.11.49,1.66.75l.03.02c-.33-.03-.67-.06-1-.08ZM660.78,28.36c.06,0,.12.02.17.03-.21.01-.43.02-.63.04l.46-.06Z"/><path d="M647.49,17.31c-1.34,0-3.1.13-4.01.9-2.42,2.05,4.45,5.83,5.71,6.54,2.91,1.64,6.11,2.82,9.41,3.39-2.82.39-5.55,1.4-7.52,3.55-2.06,2.24-2.69,5.21-1.76,8.09.92,2.84,3.31,5.94,6.36,6.64.34.08.68.12,1.02.12,2.14,0,4.08-1.52,4.53-3.7.52-2.52-1.4-5.27-4.04-5.27-.08,0-.16,0-.24,0-2.19.14-4.11,2.74-2.5,4.69.4.49.91.7,1.41.7,1.2,0,2.39-1.18,2.16-2.53-.03-.15-.1-.21-.19-.21-.18,0-.43.26-.43.47-.31.87-.7,1.31-1.18,1.31-.19,0-.39-.07-.6-.2-.75-.14-.83-.66-.23-1.55.2-1.22-.04-1.43.99-1.63.18-.04.36-.05.55-.05.68,0,1.34.23,1.9.61,1.76,1.19,2.27,3.66.72,5.29-.74.77-1.59,1.08-2.46,1.08-1.77,0-3.62-1.27-4.77-2.55-1.79-1.99-3.1-4.85-2.49-7.56.69-3.05,3.59-5.06,6.44-5.87,1.97-.56,4.07-.75,6.2-.75,3.16,0,6.38.43,9.34.75,3.11.34,6.22.94,9.34,1.55-7.11.87-13.75,5.24-17.92,10.93-.1.13-.17.45.03.54.65.27,1.33.37,2.02.37,1.14,0,2.3-.28,3.4-.56,2.04-.51,4.01-1.28,5.86-2.26,3.81-2.02,7.04-4.93,9.51-8.45,4,.76,8.02,1.41,12.05,1.41,1.59,0,3.19-.1,4.79-.34.15-.02.24-.39.07-.39,0,0,0,0-.01,0-.91.07-1.82.1-2.73.1-8.39,0-16.61-2.78-24.89-3.78-2.12-.26-4.27-.49-6.43-.64-.56-.27-1.12-.53-1.69-.77-3.36-3.42-6.89-6.94-11.4-8.76-1.76-.71-3.65-1.17-5.55-1.23-.23,0-.48-.01-.75-.01h0ZM661.45,27.95c-3.5-.49-6.91-1.36-10.11-2.92-1.75-.85-3.42-1.86-4.97-3.03-.66-.5-1.31-1.02-1.85-1.64-.66-.77-.97-1.26.1-1.77.28-.13.69-.16.99-.21.75-.13,1.49-.19,2.21-.19,5.92,0,10.93,4.11,15.11,8.22-1.83-.69-3.68-1.31-5.51-1.98-3.63-1.33-7.25-2.77-10.94-3.92-.01,0-.03,0-.04,0-.18,0-.33.34-.14.42,3.62,1.64,7.39,2.97,11.11,4.37,2.33.88,4.65,1.83,7.02,2.59.02.02.04.04.07.07-.58-.02-1.17-.03-1.75-.03-.43,0-.86,0-1.28.02h0ZM683.27,31.72c-2.24,3.04-5.07,5.59-8.37,7.44-1.7.95-3.51,1.73-5.38,2.28-1.27.38-2.7.8-4.08.8-.51,0-1.02-.06-1.51-.2,2.36-3.16,5.37-5.75,8.88-7.57,1.83-.95,3.77-1.68,5.76-2.18,1.01-.25,2.03-.4,3.05-.55-1.41.83-2.78,1.74-4.17,2.61-3.2,2-6.43,3.95-9.54,6.09-.11.07-.13.32-.01.32.02,0,.04,0,.07-.02,2.77-1.53,5.45-3.22,8.15-4.88,1.35-.83,2.71-1.67,4.06-2.5.99-.61,1.96-1.37,3.08-1.63h0Z"/><path class="b" d="M648.98,26.54c-.67-.03-1.34-.05-2.02-.05-.38,0-.75,0-1.11.02.45-.03.9-.04,1.35-.04.6,0,1.2.03,1.78.08Z"/><path d="M647.2,25.96c-6.73,0-13.75,3.05-18.57,7.24-.12.11-.29.44-.12.59,1.18,1.02,2.71,1.38,4.35,1.38,2.7,0,5.7-.98,7.86-1.6,4.72-1.35,9.18-3.44,13.28-6.13.28-.18.33-.81.07-.81-.05,0-.1.02-.17.06-.14.09-.28.18-.43.27-2.01-.68-4.12-.99-6.27-.99h0ZM632.52,34.33c-1.15,0-2.26-.22-3.22-.9,3.26-2.74,7.08-4.7,11.23-5.71,2.18-.53,4.31-.72,6.44-.72,1.94,0,3.89.16,5.89.36-3.43,2.13-7.09,3.86-10.94,5.09-2.04.65-4.13,1.16-6.23,1.53-1.01.18-2.1.36-3.16.36h0Z"/><path class="b" d="M612.96,30.36h-.38c.48-.04.96-.08,1.43-.12l-.03.02c-.55.27-1.1.52-1.66.76l.64-.65ZM607.64,30.38c.21.01.42.03.63.04l-.17.03-.46-.06ZM615.19,30.13c.88-.09,1.75-.19,2.61-.28l1.38-.15c3.24-.35,6.5-1,9.38-1.56l1.82-.36.17.02c-.12.02-.24.05-.36.07-3.15.65-6.41,1.31-9.61,1.7-1.49.18-3.39.4-5.38.56ZM631,27.69h.05s-.01.01-.02.02l-.03-.02ZM631.56,27.55c.85-.16,1.72-.32,2.6-.47-.86.16-1.72.34-2.57.51l-.03-.04ZM604.21,20.7h.03c.75,0,1.51-.24,2.18-.7.36-.24.67-.53.93-.85-.05.07-.11.15-.16.22-.71.87-1.66,1.35-2.69,1.35-.07,0-.27-.01-.29-.01ZM602.38,19.77c-.22-.24-.4-.51-.53-.8-.15-.35-.32-.97-.01-1.65-.09.38.04.84.39,1.38.03.19.05.36.06.5.02.22.05.4.09.56ZM602.25,16.71c.26-.26.57-.4.92-.4h.02c-.15.04-.29.1-.44.18-.21.05-.38.13-.5.21ZM598.4,16.5c1.12-1.71,2.76-3.21,4.71-3.66.27-.06.54-.1.81-.1-1.82.2-3.57,1.48-4.65,2.69-.31.35-.6.7-.86,1.07Z"/><path d="M604.01,12.24c-.34,0-.68.04-1.02.12-3.04.7-5.44,3.8-6.36,6.64-.93,2.88-.3,5.86,1.76,8.09,1.98,2.15,4.71,3.16,7.52,3.55-3.3.57-6.5,1.75-9.41,3.39-1.25.71-8.12,4.49-5.71,6.54.91.77,2.67.9,4.01.9.27,0,.53,0,.75-.01,1.9-.05,3.79-.51,5.55-1.23,4.51-1.83,8.04-5.35,11.4-8.76.57-.24,1.14-.5,1.69-.77,2.16-.15,4.31-.38,6.43-.64,8.28-1,16.51-3.78,24.89-3.78.91,0,1.82.03,2.73.1,0,0,0,0,.01,0,.18,0,.09-.37-.07-.39-1.6-.24-3.19-.34-4.79-.34-4.03,0-8.04.65-12.05,1.41-2.47-3.53-5.7-6.43-9.51-8.45-1.86-.98-3.83-1.75-5.86-2.26-1.1-.28-2.26-.56-3.4-.56-.69,0-1.36.1-2.02.37-.21.09-.13.41-.03.54,4.17,5.69,10.8,10.06,17.92,10.93-3.12.61-6.23,1.22-9.34,1.56-2.96.32-6.18.75-9.34.75-2.13,0-4.23-.2-6.2-.75-2.85-.81-5.75-2.82-6.44-5.87-.61-2.71.7-5.57,2.49-7.56,1.15-1.28,3-2.55,4.77-2.55.88,0,1.73.31,2.46,1.08,1.55,1.63,1.04,4.11-.72,5.29-.56.38-1.22.61-1.9.61-.18,0-.36-.02-.55-.05-1.04-.2-.8-.4-.99-1.63-.59-.89-.52-1.41.23-1.55.21-.13.41-.2.6-.2.48,0,.87.44,1.18,1.31,0,.21.24.47.43.47.09,0,.16-.06.19-.21.23-1.35-.96-2.53-2.16-2.53-.5,0-1.01.21-1.41.7-1.61,1.95.31,4.56,2.5,4.69.08,0,.16,0,.24,0,2.64,0,4.56-2.75,4.04-5.27-.45-2.18-2.4-3.7-4.53-3.7h0ZM628.95,27.06c-1.02-.15-2.04-.3-3.05-.55-2-.5-3.94-1.23-5.76-2.18-3.51-1.82-6.52-4.41-8.88-7.57.49-.14,1-.2,1.51-.2,1.38,0,2.8.42,4.08.8,1.87.56,3.67,1.33,5.38,2.28,3.3,1.85,6.13,4.4,8.37,7.44-1.12-.26-2.09-1.02-3.08-1.63-1.35-.83-2.71-1.67-4.06-2.5-2.7-1.66-5.38-3.34-8.15-4.88-.03-.02-.05-.02-.07-.02-.12,0-.09.25.01.32,3.11,2.14,6.34,4.09,9.54,6.09,1.39.87,2.76,1.78,4.17,2.61h0ZM610.05,30.86c.58,0,1.17-.01,1.75-.03-.02.02-.04.05-.07.07-2.37.76-4.69,1.71-7.02,2.59-3.71,1.41-7.49,2.73-11.11,4.37-.18.08-.04.42.14.42.01,0,.03,0,.04,0,3.7-1.14,7.31-2.59,10.94-3.92,1.83-.67,3.68-1.29,5.51-1.98-4.18,4.11-9.19,8.22-15.11,8.22-.72,0-1.46-.06-2.21-.19-.3-.05-.71-.08-.99-.21-1.08-.51-.77-1-.1-1.77.54-.63,1.2-1.15,1.85-1.64,1.55-1.17,3.22-2.19,4.97-3.03,3.2-1.55,6.61-2.43,10.11-2.92.43.01.86.02,1.28.02h0Z"/><path class="b" d="M594.51,32.33c-.44,0-.89-.01-1.34-.04.36.01.73.02,1.11.02.67,0,1.35-.02,2.01-.05-.58.05-1.18.07-1.78.07Z"/><path d="M580.18,23.62c-1.64,0-3.17.36-4.35,1.38-.17.15,0,.48.12.59,4.82,4.19,11.84,7.24,18.57,7.24,2.15,0,4.26-.31,6.27-.99.14.09.28.18.43.27.07.04.12.06.17.06.27,0,.21-.63-.07-.81-4.1-2.69-8.56-4.78-13.28-6.13-2.16-.62-5.15-1.6-7.86-1.6h0ZM594.28,31.81c-2.14,0-4.26-.19-6.44-.72-4.14-1.01-7.97-2.97-11.23-5.71.96-.68,2.07-.9,3.22-.9,1.06,0,2.14.19,3.16.36,2.11.37,4.19.88,6.23,1.53,3.85,1.22,7.52,2.96,10.94,5.09-2,.2-3.94.36-5.89.36h0Z"/><path class="b" d="M552.8,46.95c-.27,0-.54-.04-.8-.1-1.94-.45-3.57-1.94-4.7-3.64.26.36.54.71.85,1.06,1.08,1.2,2.83,2.48,4.65,2.69ZM552.06,43.38c-.35,0-.66-.13-.92-.4.13.09.29.17.51.21.15.08.29.15.44.18h-.02ZM550.73,42.38c-.31-.67-.14-1.3.01-1.65.13-.29.31-.57.53-.8-.04.16-.07.34-.09.56-.02.14-.03.31-.06.5-.35.55-.48,1.01-.39,1.39ZM556.24,40.53c-.26-.32-.57-.61-.93-.84-.67-.46-1.43-.7-2.18-.7h-.04s.22-.01.29-.01c1.03,0,1.99.48,2.69,1.35.06.07.11.14.16.21ZM583.05,32.61c-.88-.15-1.75-.31-2.6-.47l.03-.04c.85.17,1.71.35,2.58.51ZM579.92,31.99s.01,0,.02,0h-.05s.02,0,.02,0ZM577.45,31.56c-2.88-.57-6.15-1.21-9.38-1.56l-1.38-.15c-.87-.1-1.74-.2-2.63-.29,2,.16,3.9.38,5.4.56,3.2.39,6.46,1.05,9.61,1.7.12.02.24.05.36.07l-.17.02-1.82-.36ZM561.89,29.37l-.68-.69c.56.24,1.12.49,1.66.76l.03.02c-.34-.03-.68-.06-1.02-.08ZM556.98,29.25c.06,0,.12.02.17.03-.21.01-.43.02-.64.04l.46-.06Z"/><path d="M543.7,18.21c-1.34,0-3.1.13-4.01.9-2.42,2.05,4.45,5.83,5.71,6.54,2.91,1.64,6.11,2.82,9.41,3.39-2.82.39-5.55,1.4-7.52,3.55-2.06,2.24-2.69,5.21-1.76,8.09.92,2.84,3.31,5.94,6.36,6.64.34.08.68.12,1.02.12,2.14,0,4.08-1.52,4.53-3.7.52-2.52-1.4-5.27-4.04-5.27-.08,0-.16,0-.24,0-2.19.14-4.11,2.74-2.5,4.69.4.49.91.7,1.41.7,1.2,0,2.39-1.18,2.16-2.53-.03-.15-.1-.21-.19-.21-.18,0-.43.26-.43.47-.31.87-.7,1.31-1.18,1.31-.19,0-.39-.07-.6-.2-.75-.14-.83-.66-.23-1.55.2-1.22-.04-1.43.99-1.63.18-.04.36-.05.55-.05.68,0,1.34.23,1.9.61,1.76,1.19,2.27,3.66.72,5.29-.74.77-1.59,1.08-2.46,1.08-1.77,0-3.62-1.27-4.77-2.55-1.79-1.99-3.1-4.85-2.49-7.56.69-3.05,3.59-5.06,6.44-5.87,1.97-.56,4.07-.75,6.2-.75,3.16,0,6.38.43,9.34.75,3.11.34,6.22.94,9.34,1.55-7.11.87-13.75,5.24-17.92,10.93-.1.13-.17.45.03.54.65.27,1.33.37,2.02.37,1.14,0,2.3-.28,3.4-.56,2.04-.51,4.01-1.28,5.86-2.26,3.81-2.02,7.04-4.93,9.51-8.45,4,.76,8.02,1.41,12.05,1.41,1.59,0,3.19-.1,4.79-.34.15-.02.24-.39.07-.39,0,0,0,0-.01,0-.91.07-1.82.1-2.73.1-8.39,0-16.61-2.78-24.89-3.78-2.12-.26-4.27-.49-6.43-.64-.56-.27-1.12-.53-1.69-.77-3.36-3.42-6.89-6.94-11.4-8.76-1.76-.71-3.65-1.17-5.55-1.23-.23,0-.48-.01-.75-.01h0ZM557.65,28.84c-3.5-.49-6.91-1.36-10.11-2.92-1.75-.85-3.42-1.86-4.97-3.03-.66-.5-1.31-1.02-1.85-1.64-.66-.77-.97-1.26.1-1.77.28-.13.69-.16.99-.21.75-.13,1.49-.19,2.21-.19,5.92,0,10.93,4.11,15.11,8.22-1.83-.69-3.68-1.31-5.51-1.98-3.63-1.33-7.25-2.77-10.94-3.92-.01,0-.03,0-.04,0-.18,0-.33.34-.14.42,3.62,1.64,7.39,2.97,11.11,4.37,2.33.88,4.65,1.83,7.02,2.59.02.02.04.04.07.07-.58-.02-1.17-.03-1.75-.03-.43,0-.86,0-1.29.02h0ZM579.48,32.62c-2.24,3.04-5.07,5.59-8.37,7.44-1.7.95-3.51,1.73-5.38,2.28-1.27.38-2.7.8-4.08.8-.51,0-1.02-.06-1.51-.2,2.36-3.16,5.37-5.75,8.88-7.57,1.83-.95,3.77-1.68,5.76-2.18,1.01-.25,2.03-.4,3.05-.55-1.41.83-2.78,1.74-4.17,2.61-3.2,2-6.43,3.95-9.54,6.09-.11.07-.13.32-.01.32.02,0,.04,0,.07-.02,2.77-1.53,5.45-3.22,8.15-4.88,1.35-.83,2.71-1.67,4.06-2.5.99-.61,1.96-1.37,3.08-1.63h0Z"/><path class="b" d="M545.19,27.44c-.67-.03-1.35-.05-2.02-.05-.38,0-.75,0-1.12.02.45-.03.9-.04,1.35-.04.61,0,1.2.03,1.79.08Z"/><path d="M543.4,26.86c-6.73,0-13.75,3.05-18.57,7.24-.12.11-.29.44-.12.59,1.18,1.02,2.71,1.38,4.35,1.38,2.7,0,5.7-.98,7.86-1.6,4.72-1.35,9.18-3.44,13.28-6.13.28-.18.33-.81.07-.81-.05,0-.1.02-.17.06-.14.09-.28.18-.42.27-2.01-.68-4.12-.99-6.27-.99h0ZM528.72,35.22c-1.15,0-2.26-.22-3.22-.9,3.26-2.74,7.08-4.7,11.23-5.71,2.18-.53,4.31-.72,6.44-.72,1.94,0,3.89.16,5.89.36-3.43,2.13-7.09,3.86-10.94,5.09-2.04.65-4.13,1.16-6.23,1.53-1.01.18-2.1.36-3.16.36h0Z"/><path class="b" d="M511.07,31.35h-.39c.48-.04.95-.08,1.43-.12l-.03.02c-.54.27-1.1.51-1.65.75l.65-.65ZM505.72,31.37c.21.01.42.03.63.04-.06,0-.12.02-.17.03l-.46-.06ZM513.24,31.13c.89-.09,1.77-.19,2.65-.29l1.38-.15c3.23-.35,6.5-.99,9.38-1.56l1.82-.36.17.02c-.12.02-.24.05-.36.07-3.15.65-6.41,1.31-9.61,1.7-2.12.26-3.83.44-5.42.56ZM529.09,28.67h.05s-.01.01-.02.01h-.03ZM529.65,28.54c.85-.16,1.72-.32,2.6-.47-.86.16-1.72.33-2.57.51l-.03-.04ZM502.3,21.69h.03c.75,0,1.51-.24,2.18-.7.35-.24.67-.53.93-.85-.05.07-.11.14-.16.21-.71.87-1.66,1.34-2.69,1.34-.07,0-.27-.01-.29-.01ZM500.47,20.76c-.22-.24-.4-.51-.53-.8-.15-.35-.32-.98-.01-1.65-.09.38.04.84.39,1.39.03.19.05.36.06.5.02.22.05.4.09.56ZM500.34,17.7c.26-.26.57-.4.92-.4h.02c-.15.04-.29.1-.44.18-.21.05-.38.13-.51.21ZM496.49,17.48c1.12-1.71,2.76-3.2,4.7-3.65.26-.06.54-.1.81-.1-1.82.2-3.57,1.48-4.65,2.69-.31.35-.6.7-.86,1.07Z"/><path d="M502.1,13.23c-.34,0-.68.04-1.02.12-3.04.7-5.44,3.8-6.36,6.64-.93,2.88-.3,5.86,1.76,8.09,1.98,2.15,4.71,3.16,7.52,3.55-3.3.57-6.5,1.75-9.41,3.39-1.25.71-8.12,4.49-5.71,6.54.91.77,2.67.9,4.01.9.27,0,.53,0,.75-.01,1.9-.06,3.79-.51,5.55-1.23,4.51-1.83,8.04-5.35,11.4-8.76.57-.24,1.14-.5,1.69-.77,2.16-.15,4.31-.38,6.43-.64,8.28-1,16.51-3.78,24.89-3.78.91,0,1.82.03,2.73.1,0,0,0,0,.01,0,.18,0,.09-.37-.07-.39-1.6-.24-3.19-.34-4.79-.34-4.03,0-8.04.65-12.05,1.41-2.47-3.53-5.7-6.43-9.51-8.45-1.86-.98-3.83-1.75-5.86-2.26-1.1-.28-2.26-.56-3.4-.56-.69,0-1.36.1-2.02.37-.21.09-.13.41-.03.54,4.17,5.69,10.8,10.06,17.92,10.93-3.12.61-6.23,1.22-9.34,1.56-2.96.32-6.18.75-9.34.75-2.13,0-4.23-.2-6.2-.75-2.85-.81-5.75-2.82-6.44-5.87-.61-2.71.7-5.57,2.49-7.56,1.15-1.28,3-2.55,4.77-2.55.88,0,1.73.31,2.46,1.08,1.55,1.63,1.04,4.11-.72,5.29-.56.38-1.22.61-1.9.61-.18,0-.36-.02-.55-.05-1.04-.2-.8-.4-.99-1.63-.59-.89-.52-1.41.23-1.55.21-.13.41-.2.6-.2.48,0,.87.44,1.18,1.31,0,.21.24.47.43.47.09,0,.16-.06.19-.21.23-1.35-.96-2.53-2.16-2.53-.5,0-1.01.21-1.41.7-1.61,1.95.31,4.56,2.5,4.69.08,0,.16,0,.24,0,2.64,0,4.56-2.75,4.04-5.27-.45-2.18-2.4-3.7-4.53-3.7h0ZM527.04,28.05c-1.02-.15-2.04-.3-3.05-.55-2-.5-3.94-1.23-5.76-2.18-3.51-1.82-6.52-4.41-8.88-7.57.49-.14,1-.2,1.51-.2,1.38,0,2.8.42,4.08.8,1.87.56,3.67,1.33,5.38,2.28,3.3,1.85,6.13,4.4,8.37,7.44-1.12-.26-2.09-1.02-3.08-1.63-1.35-.83-2.71-1.67-4.06-2.5-2.7-1.66-5.38-3.34-8.15-4.88-.03-.02-.05-.02-.07-.02-.12,0-.09.25.01.32,3.11,2.14,6.34,4.09,9.54,6.09,1.39.87,2.76,1.78,4.17,2.61h0ZM508.14,31.85c.58,0,1.17-.01,1.75-.03-.02.02-.04.05-.07.07-2.37.76-4.69,1.71-7.02,2.59-3.71,1.41-7.49,2.73-11.11,4.37-.18.08-.04.42.14.42.01,0,.03,0,.04,0,3.7-1.14,7.31-2.59,10.94-3.92,1.83-.67,3.68-1.29,5.51-1.98-4.18,4.11-9.19,8.22-15.11,8.22-.72,0-1.46-.06-2.21-.19-.3-.05-.71-.08-.99-.21-1.08-.51-.77-1-.1-1.77.54-.63,1.2-1.15,1.85-1.64,1.55-1.17,3.22-2.19,4.97-3.03,3.2-1.55,6.61-2.43,10.11-2.92.43.01.86.02,1.28.02h0Z"/><path class="b" d="M492.6,33.32c-.44,0-.89-.01-1.34-.04.36.01.73.02,1.11.02.67,0,1.35-.02,2.01-.05-.58.05-1.18.07-1.78.07Z"/><path d="M478.26,24.61c-1.64,0-3.17.36-4.35,1.38-.17.15,0,.48.12.59,4.82,4.19,11.84,7.24,18.57,7.24,2.15,0,4.26-.31,6.27-.99.14.09.28.18.43.27.07.04.12.06.17.06.27,0,.21-.63-.07-.81-4.1-2.69-8.56-4.78-13.28-6.13-2.16-.62-5.15-1.6-7.86-1.6h0ZM492.37,32.8c-2.14,0-4.26-.19-6.44-.72-4.14-1.01-7.97-2.97-11.23-5.71.96-.68,2.07-.9,3.22-.9,1.06,0,2.14.19,3.16.36,2.11.37,4.19.88,6.23,1.53,3.85,1.22,7.52,2.96,10.94,5.09-2,.2-3.94.36-5.89.36h0Z"/><path class="b" d="M450.88,47.94c-.27,0-.54-.04-.8-.1-1.94-.45-3.58-1.94-4.7-3.65.26.36.54.72.85,1.06,1.08,1.2,2.83,2.48,4.65,2.69ZM450.15,44.36c-.35,0-.66-.13-.92-.4.13.09.29.16.5.21.15.08.29.15.44.18h-.02ZM448.81,43.36c-.31-.67-.14-1.29.01-1.65.13-.29.31-.57.53-.8-.04.16-.07.34-.09.56-.02.14-.03.31-.06.5-.35.55-.48,1-.39,1.39ZM454.33,41.52c-.26-.32-.57-.6-.93-.84-.67-.46-1.43-.7-2.18-.7h-.04s.22-.01.29-.01c1.03,0,1.99.48,2.69,1.35.06.07.11.14.16.21ZM481.12,33.6c-.87-.15-1.73-.31-2.58-.47l.03-.04c.85.17,1.7.34,2.56.51ZM478,32.98s.01,0,.02,0h-.04s.02,0,.02,0ZM475.53,32.55c-2.88-.57-6.15-1.21-9.38-1.56l-1.38-.15c-.87-.1-1.75-.2-2.63-.29,2,.16,3.91.38,5.4.56,3.2.39,6.46,1.06,9.61,1.7.12.02.24.05.36.07l-.17.02-1.82-.36ZM459.97,30.36l-.68-.69c.56.24,1.12.49,1.66.76l.03.02c-.34-.03-.68-.06-1.02-.08ZM455.07,30.24c.06,0,.12.02.17.03-.21.01-.42.02-.63.04l.46-.06Z"/><path d="M441.78,19.2c-1.34,0-3.1.13-4.01.9-2.42,2.05,4.45,5.83,5.71,6.54,2.91,1.64,6.11,2.82,9.41,3.39-2.82.39-5.55,1.4-7.52,3.55-2.06,2.24-2.69,5.21-1.76,8.09.92,2.84,3.31,5.94,6.36,6.64.34.08.68.12,1.02.12,2.14,0,4.08-1.52,4.53-3.7.52-2.52-1.4-5.27-4.04-5.27-.08,0-.16,0-.24,0-2.19.14-4.11,2.74-2.5,4.69.4.49.91.7,1.41.7,1.2,0,2.39-1.18,2.16-2.53-.03-.15-.1-.21-.19-.21-.18,0-.43.26-.43.47-.31.87-.7,1.31-1.18,1.31-.19,0-.39-.07-.6-.2-.75-.14-.83-.66-.23-1.55.2-1.22-.04-1.43.99-1.63.18-.04.37-.05.55-.05.68,0,1.34.23,1.9.61,1.76,1.19,2.27,3.66.72,5.29-.74.77-1.59,1.08-2.46,1.08-1.77,0-3.62-1.27-4.77-2.55-1.79-1.99-3.1-4.85-2.49-7.56.69-3.05,3.59-5.06,6.44-5.87,1.97-.56,4.07-.75,6.2-.75,3.16,0,6.38.43,9.34.75,3.11.34,6.22.94,9.34,1.55-7.11.87-13.75,5.24-17.92,10.93-.1.13-.17.45.03.54.65.27,1.33.37,2.02.37,1.14,0,2.3-.28,3.4-.56,2.04-.51,4.01-1.28,5.86-2.26,3.81-2.02,7.04-4.93,9.51-8.45,4,.76,8.02,1.41,12.05,1.41,1.59,0,3.19-.1,4.79-.34.15-.02.24-.39.07-.39,0,0,0,0-.01,0-.91.07-1.82.1-2.73.1-8.39,0-16.61-2.78-24.89-3.78-2.12-.26-4.27-.49-6.43-.64-.56-.27-1.12-.53-1.69-.77-3.36-3.42-6.89-6.94-11.4-8.76-1.76-.71-3.65-1.17-5.55-1.23-.23,0-.48-.01-.75-.01h0ZM455.74,29.83c-3.5-.49-6.91-1.36-10.11-2.92-1.75-.85-3.42-1.86-4.97-3.03-.66-.5-1.31-1.02-1.85-1.64-.66-.77-.97-1.26.1-1.77.28-.13.69-.16.99-.21.75-.13,1.49-.19,2.21-.19,5.92,0,10.93,4.11,15.11,8.22-1.83-.69-3.68-1.31-5.51-1.98-3.63-1.33-7.25-2.77-10.94-3.92-.01,0-.03,0-.04,0-.18,0-.33.34-.14.42,3.62,1.64,7.39,2.97,11.11,4.37,2.33.88,4.65,1.83,7.02,2.59.02.02.04.05.07.07-.58-.02-1.17-.03-1.75-.03-.43,0-.86,0-1.29.02h0ZM477.56,33.61c-2.24,3.04-5.07,5.59-8.37,7.44-1.7.95-3.51,1.73-5.38,2.28-1.27.38-2.7.8-4.08.8-.51,0-1.02-.06-1.51-.2,2.36-3.16,5.37-5.75,8.88-7.57,1.83-.95,3.77-1.68,5.76-2.18,1.01-.25,2.03-.4,3.05-.55-1.41.83-2.78,1.74-4.17,2.61-3.2,2-6.43,3.95-9.54,6.09-.11.07-.13.32-.01.32.02,0,.04,0,.07-.02,2.77-1.53,5.45-3.22,8.15-4.88,1.35-.83,2.71-1.67,4.06-2.5.99-.61,1.96-1.37,3.08-1.63h0Z"/><path class="b" d="M443.28,28.42c-.67-.03-1.35-.05-2.02-.05-.38,0-.75,0-1.12.02.45-.03.9-.04,1.35-.04.61,0,1.2.03,1.79.08Z"/><path d="M441.49,27.85c-6.73,0-13.75,3.05-18.57,7.24-.13.11-.29.44-.12.59,1.18,1.02,2.71,1.38,4.35,1.38,2.7,0,5.7-.98,7.86-1.6,4.72-1.35,9.18-3.44,13.28-6.13.28-.18.33-.81.07-.81-.05,0-.1.02-.17.06-.14.09-.28.18-.43.27-2.01-.68-4.12-.99-6.27-.99h0ZM426.81,36.21c-1.15,0-2.26-.22-3.22-.9,3.26-2.74,7.08-4.7,11.23-5.71,2.18-.53,4.31-.72,6.44-.72,1.94,0,3.89.16,5.89.36-3.43,2.13-7.09,3.86-10.94,5.08-2.04.65-4.13,1.16-6.23,1.53-1.01.18-2.1.36-3.16.36h0Z"/><path class="b" d="M1241.19,18.62h-.37c.48-.04.96-.08,1.44-.12l-.03.02c-.55.27-1.11.52-1.67.76h0l.63-.66ZM1235.88,18.64c.21.01.42.03.64.04-.06,0-.12.02-.17.03l-.46-.06ZM1243.42,18.4c.88-.09,1.76-.19,2.63-.29l1.38-.15c2.13-.23,4.29-.59,6.33-.97-1.34.31-2.92.61-4.94.85-2.12.26-3.83.43-5.4.56ZM1232.47,8.96h.03c.75,0,1.51-.24,2.18-.7.36-.24.67-.53.93-.85-.05.07-.11.14-.16.21-.71.87-1.66,1.35-2.69,1.35-.07,0-.26-.01-.29-.01ZM1230.64,8.03c-.22-.24-.4-.51-.53-.8-.15-.35-.32-.98-.01-1.65-.09.38.04.84.39,1.39.03.19.04.36.06.5.02.22.05.4.09.56ZM1230.5,4.98c.26-.27.57-.4.92-.4,0,0,.02,0,.02,0-.15.04-.29.1-.44.18-.21.05-.38.13-.51.22ZM1226.66,4.75c1.12-1.7,2.75-3.2,4.7-3.65.26-.06.53-.09.8-.1-1.82.2-3.57,1.48-4.65,2.69-.31.34-.59.7-.85,1.06Z"/><path d="M1232.26.5c-.34,0-.68.04-1.02.12-3.04.7-5.44,3.8-6.36,6.64-.93,2.88-.3,5.86,1.76,8.09,1.98,2.15,4.71,3.16,7.52,3.55-3.3.57-6.5,1.75-9.41,3.39-1.25.71-8.12,4.49-5.71,6.54.91.77,2.67.9,4.01.9.27,0,.53,0,.75-.01,1.9-.06,3.79-.51,5.55-1.23,4.51-1.83,8.04-5.35,11.4-8.76.57-.24,1.14-.5,1.69-.77,2.16-.15,4.31-.38,6.43-.64,7.93-.96,9.11-2.75,15.31-2.75.98,0,2.08.04,3.35.14,0,0,0,0,.01,0,.18,0,.09-.37-.07-.39-1.57-.22-2.71-.39-4.04-.39-1.06,0-2.23.11-3.83.39-2.47-3.53-5.7-6.43-9.51-8.45-1.86-.98-3.83-1.75-5.86-2.26-1.1-.28-2.26-.56-3.4-.56-.69,0-1.36.1-2.02.37-.21.09-.13.41-.03.54,4.17,5.69,10.8,10.06,17.92,10.93-3.12.61-6.23,1.22-9.34,1.55-2.96.32-6.18.75-9.34.75-2.13,0-4.23-.2-6.2-.75-2.85-.81-5.75-2.82-6.44-5.87-.61-2.71.7-5.57,2.49-7.56,1.15-1.28,3-2.55,4.77-2.55.88,0,1.73.31,2.46,1.08,1.55,1.63,1.04,4.11-.72,5.29-.56.38-1.22.61-1.9.61-.18,0-.36-.02-.55-.05-1.04-.2-.8-.4-.99-1.63-.59-.89-.52-1.41.23-1.55.21-.13.41-.2.6-.2.48,0,.87.44,1.18,1.31,0,.21.24.47.43.47.09,0,.16-.06.19-.21.23-1.35-.96-2.53-2.16-2.53-.5,0-1.01.21-1.41.7-1.61,1.95.31,4.56,2.5,4.69.08,0,.16,0,.24,0,2.64,0,4.56-2.75,4.04-5.27-.45-2.18-2.4-3.7-4.53-3.7h0ZM1257.21,15.32c-1.02-.15-2.04-.3-3.05-.55-2-.5-3.94-1.23-5.76-2.18-3.51-1.82-6.52-4.41-8.88-7.57.49-.14,1-.2,1.51-.2,1.38,0,2.8.42,4.08.8,1.87.56,3.67,1.33,5.38,2.28,3.3,1.85,6.13,4.4,8.37,7.44-1.12-.26-2.09-1.02-3.08-1.63-1.35-.83-2.71-1.67-4.06-2.5-2.7-1.66-5.38-3.34-8.15-4.88-.03-.02-.05-.02-.07-.02-.12,0-.09.25.01.32,3.11,2.14,6.34,4.09,9.54,6.09,1.39.87,2.76,1.78,4.17,2.61h0ZM1238.3,19.13c.58,0,1.16-.01,1.75-.03-.02.02-.04.04-.07.07-2.37.76-4.69,1.71-7.02,2.59-3.71,1.41-7.49,2.73-11.11,4.37-.18.08-.04.42.14.42.01,0,.03,0,.04,0,3.7-1.14,7.31-2.59,10.94-3.92,1.83-.67,3.68-1.29,5.51-1.98-4.18,4.11-9.19,8.22-15.11,8.22-.72,0-1.46-.06-2.21-.19-.3-.05-.71-.08-.99-.21-1.08-.51-.77-1-.1-1.77.54-.63,1.2-1.15,1.85-1.64,1.55-1.17,3.22-2.19,4.97-3.03,3.2-1.55,6.61-2.43,10.11-2.92.43.01.86.02,1.28.02h0Z"/><path class="b" d="M1222.91,20.73c-.45,0-.89-.01-1.35-.04.37.01.74.02,1.11.02.67,0,1.35-.02,2.02-.05-.58.05-1.18.08-1.78.08Z"/><path d="M1208.58,12.01c-1.64,0-3.17.36-4.35,1.38-.17.15,0,.48.12.59,4.82,4.19,11.84,7.24,18.57,7.24,2.15,0,4.26-.31,6.27-.99.14.09.28.18.43.27.06.04.12.06.17.06.27,0,.21-.63-.07-.81-4.1-2.69-8.56-4.78-13.28-6.13-2.16-.62-5.15-1.6-7.86-1.6h0ZM1222.68,20.2c-2.14,0-4.26-.19-6.44-.72-4.14-1.01-7.97-2.97-11.23-5.71.96-.68,2.07-.9,3.22-.9,1.06,0,2.14.19,3.16.36,2.11.37,4.19.88,6.23,1.53,3.85,1.22,7.52,2.96,10.94,5.08-2,.2-3.94.36-5.89.36h0Z"/><path class="b" d="M1181.19,35.35c-.27,0-.54-.04-.8-.1-1.95-.45-3.59-1.95-4.71-3.66.26.37.55.73.86,1.08,1.08,1.2,2.82,2.48,4.64,2.69ZM1180.46,31.77c-.35,0-.66-.13-.92-.4.13.09.29.17.51.21.15.08.3.15.44.18h-.02ZM1179.13,30.77c-.31-.67-.14-1.3.01-1.65.13-.29.31-.57.53-.8-.04.16-.07.34-.09.56-.02.14-.03.31-.06.5-.35.55-.48,1-.39,1.39ZM1184.65,28.93c-.26-.32-.58-.61-.93-.85-.67-.46-1.43-.7-2.18-.7h-.03s.22-.01.29-.01c1.03,0,1.99.48,2.69,1.35.06.07.11.14.16.21ZM1211.42,21.01c-.87-.15-1.73-.31-2.58-.47l.03-.04c.85.17,1.7.34,2.55.5ZM1208.32,20.39s.01,0,.02,0h-.05s.03,0,.03,0ZM1205.85,19.96c-2.88-.57-6.14-1.21-9.38-1.56l-1.38-.15c-.87-.1-1.75-.2-2.64-.29,2,.16,3.91.38,5.41.56,3.2.39,6.46,1.05,9.61,1.7.12.02.24.05.36.07l-.17.02-1.82-.36ZM1190.33,17.77l-.7-.69c.55.24,1.11.48,1.65.75l.03.02c-.33-.03-.65-.05-.98-.08ZM1185.38,17.65l.17.03c-.21.01-.42.02-.63.04l.46-.06Z"/><path d="M1172.1,6.61c-1.34,0-3.1.13-4.01.9-2.42,2.05,4.45,5.83,5.71,6.54,2.91,1.64,6.11,2.82,9.41,3.39-2.82.39-5.55,1.4-7.52,3.55-2.06,2.24-2.69,5.21-1.76,8.09.92,2.84,3.31,5.94,6.36,6.64.34.08.68.12,1.02.12,2.14,0,4.08-1.52,4.53-3.7.52-2.52-1.4-5.27-4.04-5.27-.08,0-.16,0-.24,0-2.19.14-4.11,2.74-2.5,4.69.4.49.91.7,1.41.7,1.2,0,2.39-1.18,2.16-2.53-.03-.15-.1-.21-.19-.21-.18,0-.43.26-.43.47-.31.87-.7,1.31-1.18,1.31-.19,0-.39-.07-.6-.2-.75-.14-.83-.66-.23-1.55.2-1.22-.04-1.43.99-1.63.18-.04.36-.05.55-.05.68,0,1.34.23,1.9.61,1.76,1.19,2.27,3.66.72,5.29-.74.77-1.59,1.08-2.46,1.08-1.77,0-3.62-1.27-4.77-2.55-1.79-1.99-3.1-4.85-2.49-7.56.69-3.05,3.59-5.06,6.44-5.87,1.97-.56,4.07-.75,6.2-.75,3.16,0,6.38.43,9.34.75,3.11.34,6.22.94,9.34,1.55-7.11.87-13.75,5.24-17.92,10.93-.1.13-.17.45.03.54.65.27,1.33.37,2.02.37,1.14,0,2.3-.28,3.4-.56,2.04-.51,4.01-1.28,5.86-2.26,3.81-2.02,7.04-4.93,9.51-8.45,4,.76,8.02,1.41,12.05,1.41,1.59,0,3.19-.1,4.79-.34.15-.02.24-.39.07-.39,0,0,0,0-.01,0-.91.07-1.82.1-2.73.1-8.39,0-16.61-2.78-24.89-3.78-2.12-.26-4.27-.49-6.43-.64-.56-.27-1.12-.53-1.69-.77-3.36-3.42-6.89-6.94-11.4-8.76-1.76-.71-3.65-1.17-5.55-1.23-.23,0-.48-.01-.75-.01h0ZM1186.05,17.24c-3.5-.49-6.91-1.36-10.11-2.92-1.75-.85-3.42-1.86-4.97-3.03-.66-.5-1.31-1.02-1.85-1.64-.66-.77-.97-1.26.1-1.77.28-.13.69-.16.99-.21.75-.13,1.49-.19,2.21-.19,5.92,0,10.93,4.11,15.11,8.22-1.83-.69-3.68-1.31-5.51-1.98-3.63-1.33-7.25-2.77-10.94-3.92-.01,0-.03,0-.04,0-.18,0-.33.34-.14.42,3.62,1.64,7.39,2.97,11.11,4.37,2.33.88,4.65,1.83,7.02,2.59.02.02.04.04.07.07-.58-.02-1.17-.03-1.75-.03-.43,0-.86,0-1.28.02h0ZM1207.88,21.01c-2.24,3.04-5.07,5.59-8.37,7.44-1.7.95-3.51,1.73-5.38,2.28-1.27.38-2.7.8-4.08.8-.51,0-1.02-.06-1.51-.2,2.36-3.16,5.37-5.75,8.88-7.57,1.83-.95,3.77-1.68,5.76-2.18,1.01-.25,2.03-.4,3.05-.55-1.41.83-2.78,1.74-4.17,2.61-3.2,2-6.43,3.95-9.54,6.09-.11.07-.13.32-.01.32.02,0,.04,0,.07-.02,2.77-1.53,5.45-3.22,8.15-4.88,1.35-.83,2.71-1.67,4.06-2.5.99-.61,1.96-1.37,3.08-1.63h0Z"/><path class="b" d="M1173.58,15.83c-.67-.03-1.34-.05-2.01-.05-.37,0-.74,0-1.1.02.45-.03.9-.04,1.34-.04.6,0,1.2.02,1.78.08Z"/><path d="M1171.8,15.26c-6.73,0-13.75,3.05-18.57,7.24-.12.11-.29.44-.12.59,1.18,1.02,2.71,1.38,4.35,1.38,2.7,0,5.7-.98,7.86-1.6,4.72-1.35,9.18-3.44,13.28-6.13.28-.18.33-.81.07-.81-.05,0-.1.02-.17.06-.14.09-.28.18-.43.27-2.01-.68-4.12-.99-6.27-.99h0ZM1157.12,23.62c-1.15,0-2.26-.22-3.22-.9,3.26-2.74,7.08-4.7,11.23-5.71,2.18-.53,4.31-.72,6.44-.72,1.94,0,3.89.16,5.89.36-3.43,2.13-7.09,3.86-10.94,5.09-2.04.65-4.12,1.16-6.23,1.53-1.01.18-2.1.36-3.16.36h0Z"/><path class="b" d="M1139.43,19.75h-.37c.48-.04.96-.08,1.44-.12l-.03.02c-.55.27-1.11.52-1.67.76h0l.63-.66ZM1134.12,19.76c.21.01.42.03.64.04-.06,0-.12.02-.17.03l-.46-.06ZM1141.65,19.52c.89-.09,1.76-.19,2.63-.29l1.38-.15c3.23-.35,6.5-.99,9.38-1.56l1.82-.36.17.02c-.12.02-.25.05-.37.08-3.15.65-6.41,1.31-9.61,1.7-2.12.26-3.83.43-5.4.56ZM1157.49,17.07h.05s-.01.01-.02.02l-.03-.02ZM1158.05,16.94c.86-.16,1.73-.32,2.61-.47-.86.16-1.72.34-2.58.51l-.03-.04ZM1130.7,10.09h.03c.75,0,1.51-.24,2.18-.7.35-.24.66-.52.93-.84-.05.07-.1.14-.16.21-.71.87-1.66,1.35-2.69,1.35-.07,0-.26-.01-.29-.01ZM1128.87,9.15c-.22-.24-.4-.51-.53-.8-.15-.35-.32-.97-.01-1.65-.08.38.04.84.39,1.39.03.19.04.36.06.5.02.22.05.4.09.56ZM1128.74,6.1c.26-.26.57-.4.92-.4,0,0,.02,0,.02,0-.15.04-.29.1-.44.18-.21.05-.38.13-.5.21ZM1124.89,5.87c1.12-1.7,2.75-3.2,4.7-3.65.26-.06.53-.09.8-.1-1.82.2-3.57,1.48-4.65,2.69-.31.34-.59.7-.85,1.06Z"/><path d="M1130.5,1.62c-.34,0-.68.04-1.02.12-3.04.7-5.44,3.8-6.36,6.64-.93,2.88-.3,5.86,1.76,8.09,1.98,2.15,4.71,3.16,7.52,3.55-3.3.57-6.5,1.75-9.41,3.39-1.25.71-8.12,4.49-5.71,6.54.91.77,2.67.9,4.01.9.27,0,.53,0,.75-.01,1.9-.05,3.79-.51,5.55-1.23,4.51-1.83,8.04-5.35,11.4-8.76.57-.24,1.14-.5,1.69-.77,2.16-.15,4.31-.38,6.43-.64,8.28-1,16.51-3.78,24.89-3.78.91,0,1.82.03,2.73.1,0,0,0,0,.01,0,.18,0,.09-.37-.07-.39-1.6-.24-3.19-.34-4.79-.34-4.03,0-8.04.65-12.05,1.41-2.47-3.53-5.7-6.43-9.51-8.45-1.86-.98-3.83-1.75-5.86-2.26-1.1-.28-2.26-.56-3.4-.56-.69,0-1.36.1-2.02.37-.21.09-.13.41-.03.54,4.17,5.69,10.8,10.06,17.92,10.93-3.12.61-6.23,1.22-9.34,1.55-2.96.32-6.18.75-9.34.75-2.13,0-4.23-.2-6.2-.75-2.85-.81-5.75-2.82-6.44-5.87-.61-2.71.7-5.57,2.49-7.56,1.15-1.28,3-2.55,4.77-2.55.88,0,1.73.31,2.46,1.08,1.55,1.63,1.04,4.11-.72,5.29-.56.38-1.22.61-1.9.61-.18,0-.36-.02-.55-.05-1.04-.2-.8-.4-.99-1.63-.59-.89-.52-1.41.23-1.55.21-.13.41-.2.6-.2.48,0,.87.44,1.18,1.31,0,.21.24.47.43.47.09,0,.16-.06.19-.21.23-1.35-.96-2.53-2.16-2.53-.5,0-1.01.21-1.41.7-1.61,1.95.31,4.56,2.5,4.69.08,0,.16,0,.24,0,2.64,0,4.56-2.75,4.04-5.27-.45-2.18-2.4-3.7-4.53-3.7h0ZM1155.44,16.45c-1.02-.15-2.04-.3-3.05-.55-2-.5-3.94-1.23-5.76-2.18-3.51-1.82-6.52-4.41-8.88-7.57.49-.14,1-.2,1.51-.2,1.38,0,2.8.42,4.08.8,1.87.56,3.67,1.33,5.38,2.28,3.3,1.85,6.13,4.4,8.37,7.44-1.12-.26-2.09-1.02-3.08-1.63-1.35-.83-2.71-1.67-4.06-2.5-2.7-1.66-5.38-3.34-8.15-4.88-.03-.02-.05-.02-.07-.02-.12,0-.09.25.01.32,3.11,2.14,6.34,4.09,9.54,6.09,1.39.87,2.76,1.78,4.17,2.61h0ZM1136.54,20.25c.58,0,1.16-.01,1.75-.03-.02.02-.04.04-.07.07-2.37.76-4.69,1.71-7.02,2.59-3.71,1.41-7.49,2.73-11.11,4.37-.18.08-.04.42.14.42.01,0,.03,0,.04,0,3.7-1.14,7.31-2.59,10.94-3.92,1.83-.67,3.68-1.29,5.51-1.98-4.18,4.11-9.19,8.22-15.11,8.22-.72,0-1.46-.06-2.21-.19-.3-.05-.71-.08-.99-.21-1.08-.51-.77-1-.1-1.77.54-.63,1.2-1.15,1.85-1.64,1.55-1.17,3.22-2.19,4.97-3.03,3.2-1.55,6.61-2.43,10.11-2.92.43.01.86.02,1.29.02h0Z"/><path class="b" d="M1121,21.72c-.45,0-.9-.01-1.35-.04.37.01.74.02,1.12.02.68,0,1.35-.02,2.02-.05-.58.05-1.18.08-1.79.08Z"/><path d="M1106.66,13c-1.64,0-3.17.36-4.35,1.38-.17.15,0,.48.12.59,4.82,4.19,11.84,7.24,18.57,7.24,2.15,0,4.26-.31,6.27-.99.14.09.28.18.43.27.06.04.12.06.17.06.27,0,.21-.63-.07-.81-4.1-2.69-8.56-4.78-13.28-6.13-2.16-.62-5.15-1.6-7.86-1.6h0ZM1120.77,21.19c-2.14,0-4.26-.19-6.44-.72-4.14-1.01-7.97-2.97-11.23-5.71.96-.68,2.07-.9,3.22-.9,1.06,0,2.14.19,3.16.36,2.11.37,4.19.88,6.23,1.53,3.85,1.22,7.52,2.96,10.94,5.09-2,.2-3.94.36-5.89.36h0Z"/><path class="b" d="M1079.28,36.34c-.27,0-.54-.04-.8-.1-1.95-.45-3.59-1.95-4.71-3.66.26.37.55.73.87,1.08,1.08,1.2,2.83,2.48,4.65,2.69ZM1078.55,32.76c-.35,0-.66-.13-.92-.4.13.09.29.17.51.21.15.08.3.15.44.18h-.02ZM1077.21,31.76c-.31-.67-.14-1.3.01-1.65.13-.29.31-.57.53-.8-.04.16-.07.34-.09.56-.02.14-.03.31-.06.5-.35.55-.48,1-.39,1.39ZM1082.73,29.92c-.26-.32-.57-.61-.93-.85-.67-.46-1.43-.7-2.18-.7h-.03s.22-.01.29-.01c1.03,0,1.99.48,2.69,1.35.06.07.11.14.16.21ZM1109.53,22c-.88-.15-1.74-.31-2.59-.47l.03-.04c.85.17,1.71.34,2.57.51ZM1106.4,21.38h.02s-.05.02-.05.02l.03-.02ZM1103.93,20.95c-2.88-.57-6.14-1.21-9.38-1.56l-1.38-.15c-.87-.1-1.74-.2-2.62-.29,2,.16,3.9.38,5.39.56,3.2.39,6.46,1.05,9.61,1.7.12.02.24.05.37.08l-.17.02-1.82-.36ZM1088.41,18.76l-.7-.69c.55.24,1.11.48,1.65.75l.03.02c-.33-.03-.65-.05-.98-.08ZM1083.47,18.64c.06,0,.12.02.17.03-.21.01-.42.02-.63.04l.45-.06Z"/><path d="M1070.18,7.6c-1.34,0-3.1.13-4.01.9-2.42,2.05,4.45,5.83,5.71,6.54,2.91,1.64,6.11,2.82,9.41,3.39-2.82.39-5.55,1.4-7.52,3.55-2.06,2.24-2.69,5.21-1.76,8.09.92,2.84,3.31,5.94,6.36,6.64.34.08.68.12,1.02.12,2.14,0,4.08-1.52,4.53-3.7.52-2.52-1.4-5.27-4.04-5.27-.08,0-.16,0-.24,0-2.19.14-4.11,2.74-2.5,4.69.4.49.91.7,1.41.7,1.2,0,2.39-1.18,2.16-2.53-.03-.15-.1-.21-.19-.21-.18,0-.43.26-.43.47-.31.87-.7,1.31-1.18,1.31-.19,0-.39-.07-.6-.2-.75-.14-.83-.66-.23-1.55.2-1.22-.04-1.43.99-1.63.18-.04.36-.05.55-.05.68,0,1.34.23,1.9.61,1.76,1.19,2.27,3.66.72,5.29-.74.77-1.59,1.08-2.46,1.08-1.77,0-3.62-1.27-4.77-2.55-1.79-1.99-3.1-4.85-2.49-7.56.69-3.05,3.59-5.06,6.44-5.87,1.97-.56,4.07-.75,6.2-.75,3.16,0,6.38.43,9.34.75,3.11.34,6.22.94,9.34,1.55-7.11.87-13.75,5.24-17.92,10.93-.1.13-.17.45.03.54.65.27,1.33.37,2.02.37,1.14,0,2.3-.28,3.4-.56,2.04-.51,4.01-1.28,5.86-2.26,3.81-2.02,7.04-4.93,9.51-8.45,4,.76,8.02,1.41,12.05,1.41,1.59,0,3.19-.1,4.79-.34.15-.02.24-.39.07-.39,0,0,0,0-.01,0-.91.07-1.82.1-2.73.1-8.39,0-16.61-2.78-24.89-3.78-2.12-.26-4.27-.49-6.43-.64-.56-.27-1.12-.53-1.69-.77-3.36-3.42-6.89-6.94-11.4-8.76-1.76-.71-3.65-1.17-5.55-1.23-.23,0-.48-.01-.75-.01h0ZM1084.14,18.23c-3.5-.49-6.91-1.36-10.11-2.92-1.75-.85-3.42-1.86-4.97-3.03-.66-.5-1.31-1.02-1.85-1.64-.66-.77-.97-1.26.1-1.77.28-.13.69-.16.99-.21.75-.13,1.49-.19,2.21-.19,5.92,0,10.93,4.11,15.11,8.22-1.83-.69-3.68-1.31-5.51-1.98-3.63-1.33-7.25-2.77-10.94-3.92-.01,0-.03,0-.04,0-.18,0-.33.34-.14.42,3.62,1.64,7.39,2.97,11.11,4.37,2.33.88,4.65,1.83,7.02,2.59.02.02.04.04.07.07-.58-.02-1.17-.03-1.75-.03-.43,0-.86,0-1.28.02h0ZM1105.96,22c-2.24,3.04-5.07,5.59-8.37,7.44-1.7.95-3.51,1.73-5.38,2.28-1.27.38-2.7.8-4.08.8-.51,0-1.02-.06-1.51-.2,2.36-3.16,5.37-5.75,8.88-7.57,1.83-.95,3.77-1.68,5.76-2.18,1.01-.25,2.03-.4,3.05-.55-1.41.83-2.78,1.74-4.17,2.61-3.2,2-6.43,3.95-9.54,6.09-.11.07-.13.32-.01.32.02,0,.04,0,.07-.02,2.77-1.53,5.45-3.22,8.15-4.88,1.35-.83,2.71-1.67,4.06-2.5.99-.61,1.96-1.37,3.08-1.63h0Z"/><path class="b" d="M1071.67,16.82c-.67-.03-1.34-.05-2.01-.05-.37,0-.74,0-1.1.02.45-.03.9-.04,1.34-.04.6,0,1.2.02,1.78.08Z"/><path d="M1069.89,16.25c-6.73,0-13.75,3.05-18.57,7.24-.12.11-.29.44-.12.59,1.18,1.02,2.71,1.38,4.35,1.38,2.7,0,5.7-.98,7.86-1.6,4.72-1.35,9.18-3.44,13.28-6.13.28-.18.33-.81.07-.81-.05,0-.1.02-.17.06-.14.09-.28.18-.43.27-2.01-.68-4.12-.99-6.27-.99h0ZM1055.21,24.61c-1.15,0-2.26-.22-3.22-.9,3.26-2.74,7.08-4.7,11.23-5.71,2.18-.53,4.31-.72,6.44-.72,1.94,0,3.89.16,5.89.36-3.43,2.13-7.09,3.86-10.94,5.09-2.04.65-4.13,1.16-6.23,1.53-1.01.18-2.1.36-3.16.36h0Z"/><path class="b" d="M1035.65,20.64h-.38c.48-.04.96-.08,1.43-.12l-.03.02c-.55.27-1.1.52-1.66.76l.64-.65ZM1030.32,20.66c.21.01.42.03.64.04-.06,0-.12.02-.18.03l-.46-.06ZM1037.86,20.42c.88-.09,1.76-.19,2.63-.29l1.38-.15c3.23-.35,6.5-1,9.38-1.56l1.82-.36.17.02c-.12.02-.25.05-.37.08-3.15.65-6.41,1.31-9.61,1.7-1.49.18-3.4.4-5.4.56ZM1053.69,17.97h.05s-.01.01-.02.02l-.03-.02ZM1054.25,17.83c.85-.16,1.72-.32,2.6-.47-.86.16-1.72.33-2.57.51l-.03-.04ZM1026.9,10.98h.04c.75,0,1.51-.24,2.18-.7.35-.24.66-.52.93-.84-.05.07-.1.14-.16.21-.71.87-1.66,1.35-2.69,1.35-.07,0-.27-.01-.3-.01ZM1025.07,10.05c-.22-.24-.4-.51-.53-.8-.15-.35-.32-.97-.01-1.65-.09.38.04.84.39,1.39.03.19.04.36.06.5.02.22.05.4.09.56ZM1024.94,7c.26-.26.57-.4.92-.4,0,0,.02,0,.02,0-.15.04-.29.1-.44.18-.21.05-.38.13-.5.21ZM1021.1,6.77c1.12-1.7,2.75-3.2,4.7-3.65.26-.06.54-.1.8-.1-1.82.2-3.57,1.48-4.65,2.69-.31.34-.59.7-.85,1.06Z"/><path d="M1026.7,2.52c-.34,0-.68.04-1.02.12-3.04.7-5.44,3.8-6.36,6.64-.93,2.88-.3,5.86,1.76,8.09,1.98,2.15,4.71,3.16,7.52,3.55-3.3.57-6.5,1.75-9.41,3.39-1.25.71-8.12,4.49-5.71,6.54.91.77,2.67.9,4.01.9.27,0,.53,0,.75-.01,1.9-.05,3.79-.51,5.55-1.23,4.51-1.83,8.04-5.35,11.4-8.76.57-.24,1.14-.5,1.69-.77,2.16-.15,4.31-.38,6.43-.64,8.28-1,16.51-3.78,24.89-3.78.91,0,1.82.03,2.73.1,0,0,0,0,.01,0,.18,0,.09-.37-.07-.39-1.6-.24-3.19-.34-4.79-.34-4.03,0-8.04.65-12.05,1.41-2.47-3.53-5.7-6.43-9.51-8.45-1.86-.98-3.83-1.75-5.86-2.26-1.1-.28-2.26-.56-3.4-.56-.69,0-1.36.1-2.02.37-.21.09-.13.41-.03.54,4.17,5.69,10.81,10.06,17.92,10.93-3.12.61-6.23,1.22-9.34,1.55-2.96.32-6.18.75-9.34.75-2.13,0-4.23-.2-6.2-.75-2.85-.81-5.75-2.82-6.44-5.87-.61-2.71.7-5.57,2.49-7.56,1.15-1.28,3-2.55,4.77-2.55.88,0,1.73.31,2.46,1.08,1.55,1.63,1.04,4.11-.72,5.29-.56.38-1.22.61-1.9.61-.18,0-.36-.02-.55-.05-1.04-.2-.8-.4-.99-1.63-.59-.89-.52-1.41.23-1.55.21-.13.41-.2.6-.2.48,0,.87.44,1.18,1.31,0,.21.24.47.43.47.09,0,.16-.06.19-.21.23-1.35-.96-2.53-2.16-2.53-.5,0-1.01.21-1.41.7-1.61,1.95.31,4.56,2.5,4.69.08,0,.16,0,.24,0,2.64,0,4.56-2.75,4.04-5.27-.45-2.18-2.4-3.7-4.53-3.7h0ZM1051.64,17.34c-1.02-.15-2.04-.3-3.05-.55-2-.5-3.94-1.23-5.76-2.18-3.51-1.82-6.52-4.41-8.88-7.57.49-.14,1-.2,1.51-.2,1.38,0,2.8.42,4.08.8,1.87.56,3.67,1.33,5.38,2.28,3.3,1.85,6.13,4.4,8.37,7.44-1.12-.26-2.09-1.02-3.08-1.63-1.35-.83-2.71-1.67-4.06-2.5-2.7-1.66-5.38-3.34-8.15-4.88-.03-.02-.05-.02-.07-.02-.12,0-.09.25.01.32,3.11,2.14,6.34,4.09,9.54,6.09,1.39.87,2.76,1.78,4.17,2.61h0ZM1032.74,21.15c.58,0,1.16-.01,1.75-.03-.02.02-.04.05-.07.07-2.37.76-4.69,1.71-7.02,2.59-3.71,1.41-7.49,2.73-11.11,4.37-.18.08-.04.42.14.42.01,0,.03,0,.04,0,3.7-1.14,7.31-2.59,10.94-3.92,1.83-.67,3.68-1.29,5.51-1.98-4.18,4.11-9.19,8.22-15.11,8.22-.72,0-1.46-.06-2.21-.19-.3-.05-.71-.08-.99-.21-1.08-.51-.77-1-.1-1.77.54-.63,1.2-1.15,1.85-1.64,1.55-1.17,3.22-2.19,4.97-3.03,3.2-1.55,6.61-2.43,10.11-2.92.43.01.86.02,1.28.02h0Z"/><path class="b" d="M1017.2,22.61c-.44,0-.89-.01-1.34-.04.36.01.73.02,1.1.02.67,0,1.35-.02,2.01-.05-.58.05-1.18.08-1.78.08Z"/><path d="M1002.86,13.9c-1.64,0-3.17.36-4.35,1.38-.17.15,0,.48.12.59,4.82,4.19,11.84,7.24,18.57,7.24,2.15,0,4.26-.31,6.27-.99.14.09.28.18.43.27.06.04.12.06.17.06.27,0,.21-.63-.07-.81-4.1-2.69-8.56-4.78-13.28-6.13-2.16-.62-5.15-1.6-7.86-1.6h0ZM1016.97,22.09c-2.14,0-4.26-.19-6.44-.72-4.14-1.01-7.97-2.97-11.23-5.71.96-.68,2.07-.9,3.22-.9,1.06,0,2.14.19,3.16.36,2.11.37,4.19.88,6.23,1.53,3.85,1.22,7.52,2.96,10.94,5.09-2,.2-3.94.36-5.89.36h0Z"/><path class="b" d="M975.49,37.23c-.27,0-.54-.04-.81-.1-1.94-.45-3.58-1.94-4.7-3.65.26.36.54.72.85,1.06,1.08,1.21,2.83,2.49,4.65,2.69ZM974.75,33.66c-.35,0-.66-.13-.92-.4.13.09.29.16.5.21.15.08.29.15.44.18h-.02ZM973.42,32.66c-.31-.67-.14-1.29.01-1.65.13-.29.31-.57.53-.8-.04.16-.07.34-.09.56-.02.14-.03.31-.06.5-.35.55-.48,1-.39,1.39ZM978.94,30.82c-.26-.32-.58-.61-.93-.85-.67-.46-1.43-.7-2.18-.7h-.03s.22-.01.29-.01c1.03,0,1.99.48,2.69,1.35.06.07.11.14.16.21ZM1005.73,22.9c-.88-.15-1.75-.31-2.6-.47l.03-.04c.85.17,1.71.34,2.57.51ZM1002.6,22.27s.01,0,.02,0h-.05s.03,0,.03,0ZM1000.14,21.84c-2.88-.57-6.15-1.21-9.38-1.56l-1.38-.15c-.87-.1-1.75-.2-2.63-.29,1.57.13,3.28.3,5.4.56,3.2.39,6.46,1.05,9.61,1.7.12.02.24.05.37.08l-.17.02-1.82-.36ZM984.59,19.65l-.69-.69c.56.24,1.11.49,1.66.75l.03.02c-.33-.03-.67-.06-1-.08ZM979.67,19.53c.06,0,.12.02.17.03-.21.01-.43.02-.64.04l.46-.06Z"/><path d="M966.39,8.49c-1.34,0-3.1.13-4.01.9-2.42,2.05,4.45,5.83,5.71,6.54,2.91,1.64,6.11,2.82,9.41,3.39-2.82.39-5.55,1.4-7.52,3.55-2.06,2.24-2.69,5.21-1.76,8.09.92,2.84,3.31,5.94,6.36,6.64.34.08.68.12,1.02.12,2.14,0,4.08-1.52,4.53-3.7.52-2.52-1.4-5.27-4.04-5.27-.08,0-.16,0-.24,0-2.19.14-4.11,2.74-2.5,4.69.4.49.91.7,1.41.7,1.2,0,2.39-1.18,2.16-2.53-.03-.15-.1-.21-.19-.21-.18,0-.43.26-.43.47-.31.87-.7,1.31-1.18,1.31-.19,0-.39-.07-.6-.2-.75-.14-.83-.66-.23-1.55.2-1.22-.04-1.43.99-1.63.18-.04.36-.05.55-.05.68,0,1.34.23,1.9.61,1.76,1.19,2.27,3.66.72,5.29-.74.77-1.59,1.08-2.46,1.08-1.77,0-3.62-1.27-4.77-2.55-1.79-1.99-3.1-4.85-2.49-7.56.69-3.05,3.59-5.06,6.44-5.87,1.97-.56,4.07-.75,6.2-.75,3.16,0,6.38.43,9.34.75,3.11.34,6.22.94,9.34,1.55-7.11.87-13.75,5.24-17.92,10.93-.1.13-.17.45.03.54.65.27,1.33.37,2.02.37,1.14,0,2.3-.28,3.4-.56,2.04-.51,4.01-1.28,5.86-2.26,3.81-2.02,7.04-4.93,9.51-8.45,4,.76,8.02,1.41,12.05,1.41,1.59,0,3.19-.1,4.79-.34.15-.02.24-.39.07-.39,0,0,0,0-.01,0-.91.07-1.82.1-2.73.1-8.39,0-16.61-2.78-24.89-3.78-2.12-.26-4.27-.49-6.43-.64-.56-.27-1.12-.53-1.69-.77-3.36-3.42-6.89-6.94-11.4-8.76-1.76-.71-3.65-1.17-5.55-1.23-.23,0-.48-.01-.75-.01h0ZM980.34,19.13c-3.5-.49-6.91-1.36-10.11-2.92-1.75-.85-3.42-1.86-4.97-3.03-.66-.5-1.31-1.02-1.85-1.64-.66-.77-.97-1.26.1-1.77.28-.13.69-.16.99-.21.75-.13,1.49-.19,2.21-.19,5.92,0,10.93,4.11,15.11,8.22-1.83-.69-3.68-1.31-5.51-1.98-3.63-1.33-7.25-2.77-10.94-3.92-.01,0-.03,0-.04,0-.18,0-.33.34-.14.42,3.62,1.64,7.39,2.97,11.11,4.37,2.33.88,4.65,1.83,7.02,2.59.02.02.04.05.07.07-.58-.02-1.16-.03-1.75-.03-.43,0-.86,0-1.29.02h0ZM1002.16,22.9c-2.24,3.04-5.07,5.59-8.37,7.44-1.7.95-3.51,1.73-5.38,2.28-1.27.38-2.7.8-4.08.8-.51,0-1.02-.06-1.51-.2,2.36-3.16,5.37-5.75,8.88-7.57,1.83-.95,3.77-1.68,5.76-2.18,1.01-.25,2.03-.4,3.05-.55-1.41.83-2.78,1.74-4.17,2.61-3.2,2-6.43,3.95-9.54,6.09-.11.07-.13.32-.01.32.02,0,.04,0,.07-.02,2.77-1.53,5.45-3.22,8.15-4.88,1.35-.83,2.71-1.67,4.06-2.5.99-.61,1.96-1.37,3.08-1.63h0Z"/><path class="b" d="M967.88,17.72c-.67-.03-1.34-.05-2.02-.05-.38,0-.75,0-1.11.02.45-.03.9-.04,1.35-.04.6,0,1.2.03,1.78.08Z"/><path d="M966.09,17.14c-6.73,0-13.75,3.05-18.57,7.24-.12.11-.29.44-.12.59,1.18,1.02,2.71,1.38,4.35,1.38,2.7,0,5.7-.98,7.86-1.6,4.72-1.35,9.18-3.44,13.28-6.13.28-.18.33-.81.07-.81-.05,0-.1.02-.17.06-.14.09-.28.18-.43.27-2.01-.68-4.12-.99-6.27-.99h0ZM951.41,25.51c-1.15,0-2.26-.22-3.22-.9,3.26-2.74,7.08-4.7,11.23-5.71,2.18-.53,4.31-.72,6.44-.72,1.94,0,3.89.16,5.89.36-3.43,2.13-7.09,3.86-10.94,5.09-2.04.65-4.13,1.16-6.23,1.53-1.01.18-2.1.36-3.16.36h0Z"/><path class="b" d="M933.74,21.63h-.38c.48-.04.96-.08,1.44-.12l-.03.02c-.55.27-1.1.52-1.66.76l.64-.65ZM928.42,21.65c.21.01.42.03.63.04-.06,0-.12.02-.17.03l-.46-.06ZM935.95,21.4c.88-.09,1.76-.19,2.63-.29l1.38-.15c3.23-.35,6.5-1,9.38-1.56l1.82-.36.17.02c-.12.02-.24.05-.36.07-3.15.65-6.41,1.31-9.61,1.7-1.49.18-3.4.4-5.4.56ZM951.78,18.96h.05s-.01.01-.02.02l-.03-.02ZM952.34,18.82c.85-.16,1.71-.32,2.59-.47-.86.16-1.71.33-2.56.51l-.03-.04ZM924.99,11.97h.03c.75,0,1.51-.24,2.18-.7.35-.24.67-.52.93-.84-.05.07-.1.14-.16.21-.71.87-1.66,1.35-2.69,1.35-.07,0-.26-.01-.29-.01ZM923.16,11.04c-.22-.24-.4-.51-.53-.8-.15-.35-.32-.97-.01-1.65-.08.38.04.84.39,1.39.03.19.04.36.06.5.02.22.05.4.09.56ZM923.03,7.98c.26-.26.57-.4.92-.4,0,0,.02,0,.02,0-.15.04-.29.1-.44.18-.21.05-.38.13-.5.21ZM919.19,7.76c1.12-1.7,2.75-3.2,4.7-3.65.26-.06.53-.1.8-.1-1.82.2-3.57,1.48-4.65,2.69-.31.34-.59.7-.85,1.06Z"/><path d="M924.79,3.51c-.34,0-.68.04-1.02.12-3.04.7-5.44,3.8-6.36,6.64-.93,2.88-.3,5.86,1.76,8.09,1.98,2.15,4.71,3.16,7.52,3.55-3.3.57-6.5,1.75-9.41,3.39-1.25.71-8.12,4.49-5.71,6.54.91.77,2.67.9,4.01.9.27,0,.53,0,.75-.01,1.9-.06,3.79-.51,5.55-1.23,4.51-1.83,8.04-5.35,11.4-8.76.57-.24,1.14-.5,1.69-.77,2.16-.15,4.31-.38,6.43-.64,8.28-1,16.51-3.78,24.89-3.78.91,0,1.82.03,2.73.1,0,0,0,0,.01,0,.18,0,.09-.37-.07-.39-1.6-.24-3.19-.34-4.79-.34-4.03,0-8.04.65-12.05,1.41-2.47-3.53-5.7-6.43-9.51-8.45-1.86-.98-3.83-1.75-5.86-2.26-1.1-.28-2.26-.56-3.4-.56-.69,0-1.36.1-2.02.37-.21.09-.13.41-.03.54,4.17,5.69,10.8,10.06,17.92,10.93-3.12.61-6.23,1.22-9.34,1.55-2.96.32-6.18.75-9.34.75-2.13,0-4.23-.2-6.2-.75-2.85-.81-5.75-2.82-6.44-5.87-.61-2.71.7-5.57,2.49-7.56,1.15-1.28,3-2.55,4.77-2.55.88,0,1.73.31,2.46,1.08,1.55,1.63,1.04,4.11-.72,5.29-.56.38-1.22.61-1.9.61-.18,0-.36-.02-.55-.05-1.04-.2-.8-.4-.99-1.63-.59-.89-.52-1.41.23-1.55.21-.13.41-.2.6-.2.48,0,.87.44,1.18,1.31,0,.21.24.47.43.47.09,0,.16-.06.19-.21.23-1.35-.96-2.53-2.16-2.53-.5,0-1.01.21-1.41.7-1.61,1.95.31,4.56,2.5,4.69.08,0,.16,0,.24,0,2.64,0,4.56-2.75,4.04-5.27-.45-2.18-2.4-3.7-4.53-3.7h0ZM949.73,18.33c-1.02-.15-2.04-.3-3.05-.55-2-.5-3.94-1.23-5.76-2.18-3.51-1.82-6.52-4.41-8.88-7.57.49-.14,1-.2,1.51-.2,1.38,0,2.8.42,4.08.8,1.87.56,3.68,1.33,5.38,2.28,3.3,1.85,6.13,4.4,8.37,7.44-1.12-.26-2.09-1.02-3.08-1.63-1.35-.83-2.71-1.67-4.06-2.5-2.7-1.66-5.38-3.34-8.15-4.88-.03-.02-.05-.02-.07-.02-.12,0-.09.25.01.32,3.11,2.14,6.34,4.09,9.54,6.09,1.39.87,2.76,1.78,4.17,2.61h0ZM930.83,22.14c.58,0,1.16-.01,1.75-.03-.02.02-.04.05-.07.07-2.37.76-4.69,1.71-7.02,2.59-3.71,1.41-7.49,2.73-11.11,4.37-.18.08-.04.42.14.42.01,0,.03,0,.04,0,3.7-1.14,7.31-2.59,10.94-3.92,1.83-.67,3.68-1.29,5.51-1.98-4.18,4.11-9.19,8.22-15.11,8.22-.72,0-1.46-.06-2.21-.19-.3-.05-.71-.08-.99-.21-1.08-.51-.77-1-.1-1.77.54-.63,1.2-1.15,1.85-1.64,1.55-1.17,3.22-2.19,4.97-3.03,3.2-1.55,6.61-2.43,10.11-2.92.43.01.86.02,1.28.02h0Z"/><path class="b" d="M915.29,23.6c-.44,0-.89-.01-1.34-.04.36.01.73.02,1.11.02.67,0,1.35-.02,2.01-.05-.58.05-1.18.07-1.78.07Z"/><path d="M900.95,14.89c-1.64,0-3.17.36-4.35,1.38-.17.15,0,.48.12.59,4.82,4.19,11.84,7.24,18.57,7.24,2.15,0,4.26-.31,6.27-.99.14.09.28.18.43.27.06.04.12.06.17.06.27,0,.21-.63-.07-.81-4.1-2.69-8.56-4.78-13.28-6.13-2.16-.62-5.15-1.6-7.86-1.6h0ZM915.06,23.08c-2.14,0-4.26-.19-6.44-.72-4.14-1.01-7.97-2.97-11.23-5.71.96-.68,2.07-.9,3.22-.9,1.06,0,2.14.19,3.16.36,2.11.37,4.19.88,6.23,1.53,3.85,1.22,7.52,2.96,10.94,5.09-2,.2-3.94.36-5.89.36h0Z"/><path class="b" d="M873.58,38.22c-.27,0-.54-.04-.81-.1-1.94-.45-3.58-1.94-4.7-3.65.26.36.54.72.85,1.06,1.08,1.21,2.83,2.49,4.65,2.69ZM872.84,34.65c-.35,0-.66-.13-.92-.4.13.09.29.16.51.21.15.08.29.15.44.18h-.02ZM871.5,33.65c-.31-.67-.14-1.3.01-1.65.13-.29.31-.57.53-.8-.04.16-.07.34-.09.56-.02.14-.03.31-.06.5-.35.55-.48,1-.39,1.39ZM877.02,31.8c-.26-.32-.57-.6-.93-.84-.67-.46-1.43-.7-2.18-.7h-.04s.22-.01.29-.01c1.03,0,1.99.48,2.69,1.35.05.07.11.14.16.21ZM903.81,23.88c-.87-.15-1.74-.31-2.59-.47l.03-.04c.85.17,1.7.34,2.56.51ZM900.69,23.26s.01,0,.02,0h-.05s.03,0,.03,0ZM898.22,22.83c-2.88-.57-6.15-1.21-9.38-1.56l-1.38-.15c-.87-.1-1.75-.2-2.63-.29,1.57.13,3.28.3,5.4.56,3.2.39,6.46,1.05,9.61,1.7.12.03.25.05.37.08l-.17.02-1.82-.36ZM882.7,20.64l-.7-.69c.55.24,1.11.48,1.65.75l.03.02c-.33-.03-.65-.05-.98-.08ZM877.76,20.52c.06,0,.12.02.17.03-.22.01-.43.02-.64.04l.46-.06Z"/><path d="M864.47,9.48c-1.34,0-3.1.13-4.01.9-2.42,2.05,4.45,5.83,5.71,6.54,2.91,1.64,6.11,2.82,9.41,3.39-2.82.39-5.55,1.4-7.52,3.55-2.06,2.24-2.69,5.21-1.76,8.09.92,2.84,3.31,5.94,6.36,6.64.34.08.68.12,1.02.12,2.14,0,4.08-1.52,4.53-3.7.52-2.52-1.4-5.27-4.04-5.27-.08,0-.16,0-.24,0-2.19.14-4.11,2.74-2.5,4.69.4.49.91.7,1.41.7,1.2,0,2.39-1.18,2.16-2.53-.03-.15-.1-.21-.19-.21-.18,0-.43.26-.43.47-.31.87-.7,1.31-1.18,1.31-.19,0-.39-.07-.6-.2-.75-.14-.83-.66-.23-1.55.2-1.22-.04-1.43.99-1.63.18-.04.36-.05.55-.05.68,0,1.34.23,1.9.61,1.76,1.19,2.27,3.66.72,5.29-.74.77-1.59,1.08-2.46,1.08-1.77,0-3.62-1.27-4.77-2.55-1.79-1.99-3.1-4.85-2.49-7.56.69-3.05,3.59-5.06,6.44-5.87,1.97-.56,4.07-.75,6.2-.75,3.16,0,6.38.43,9.34.75,3.11.34,6.22.94,9.34,1.55-7.11.87-13.75,5.24-17.92,10.93-.1.13-.17.45.03.54.65.27,1.33.37,2.02.37,1.14,0,2.3-.28,3.4-.56,2.04-.51,4.01-1.28,5.86-2.26,3.81-2.02,7.04-4.93,9.51-8.45,4,.76,8.02,1.41,12.05,1.41,1.59,0,3.19-.1,4.79-.34.15-.02.24-.39.07-.39,0,0,0,0-.01,0-.91.07-1.82.1-2.73.1-8.39,0-16.61-2.78-24.89-3.78-2.12-.26-4.27-.49-6.43-.64-.56-.27-1.12-.53-1.69-.77-3.36-3.42-6.89-6.94-11.4-8.76-1.76-.71-3.65-1.17-5.55-1.23-.23,0-.48-.01-.75-.01h0ZM878.43,20.11c-3.5-.49-6.91-1.36-10.11-2.92-1.75-.85-3.42-1.86-4.97-3.03-.66-.5-1.31-1.02-1.85-1.64-.66-.77-.97-1.26.1-1.77.28-.13.69-.16.99-.21.75-.13,1.49-.19,2.21-.19,5.92,0,10.93,4.11,15.11,8.22-1.83-.69-3.68-1.31-5.51-1.98-3.63-1.33-7.25-2.77-10.94-3.92-.01,0-.03,0-.04,0-.18,0-.33.34-.14.42,3.62,1.64,7.39,2.97,11.11,4.37,2.33.88,4.65,1.83,7.02,2.59.02.02.04.05.07.07-.58-.02-1.16-.03-1.75-.03-.43,0-.86,0-1.29.02h0ZM900.25,23.89c-2.24,3.04-5.07,5.59-8.37,7.44-1.7.95-3.51,1.73-5.38,2.28-1.27.38-2.7.8-4.08.8-.51,0-1.02-.06-1.51-.2,2.36-3.16,5.37-5.75,8.88-7.57,1.83-.95,3.77-1.68,5.76-2.18,1.01-.25,2.03-.4,3.05-.55-1.41.83-2.78,1.74-4.17,2.61-3.2,2-6.43,3.95-9.54,6.09-.11.07-.13.32-.02.32.02,0,.04,0,.07-.02,2.77-1.53,5.45-3.22,8.15-4.88,1.35-.83,2.71-1.67,4.06-2.5.99-.61,1.96-1.37,3.08-1.63h0Z"/><path class="b" d="M865.96,18.71c-.67-.03-1.34-.05-2.02-.05-.38,0-.75,0-1.11.02.45-.03.9-.04,1.35-.04.6,0,1.2.03,1.78.08Z"/><path d="M864.18,18.13c-6.73,0-13.75,3.05-18.57,7.24-.12.11-.29.44-.12.59,1.18,1.02,2.71,1.38,4.35,1.38,2.7,0,5.7-.98,7.86-1.6,4.72-1.35,9.18-3.44,13.28-6.13.28-.18.33-.81.07-.81-.05,0-.1.02-.17.06-.14.09-.28.18-.43.27-2.01-.68-4.12-.99-6.27-.99h0ZM849.49,26.5c-1.15,0-2.26-.22-3.22-.9,3.26-2.74,7.08-4.7,11.23-5.71,2.18-.53,4.31-.72,6.44-.72,1.94,0,3.89.16,5.89.36-3.43,2.13-7.09,3.86-10.94,5.09-2.04.65-4.12,1.16-6.23,1.53-1.01.18-2.1.36-3.16.36h0Z"/><path class="b" d="M396.28,38.49h-.37c.48-.04.97-.08,1.45-.12l-.03.02c-.55.27-1.11.52-1.67.76h0l.63-.66ZM390.97,38.51c.21.01.42.03.63.04-.06,0-.12.02-.17.03l-.46-.06ZM398.5,38.26c.89-.09,1.77-.19,2.64-.29l1.38-.15c2.14-.23,4.29-.59,6.34-.97-1.34.31-2.92.61-4.95.86-1.5.18-3.4.4-5.4.56ZM387.54,28.83s.02,0,.04,0c.75,0,1.51-.24,2.18-.7.35-.24.67-.52.93-.85-.05.07-.1.14-.16.21-.71.87-1.66,1.35-2.69,1.35-.07,0-.27-.01-.29-.01ZM385.72,27.9c-.22-.24-.4-.51-.53-.8-.15-.35-.32-.98-.01-1.65-.09.38.04.84.39,1.39.03.19.05.36.06.5.02.22.05.4.09.56ZM385.58,24.84c.26-.26.57-.4.92-.4,0,0,.02,0,.02,0-.15.04-.29.1-.44.18-.21.05-.38.13-.51.21ZM381.74,24.62c1.12-1.7,2.76-3.2,4.7-3.65.26-.06.53-.09.8-.1-1.82.2-3.57,1.48-4.65,2.69-.31.34-.59.7-.85,1.06Z"/><path d="M387.34,20.37c-.34,0-.68.04-1.02.12-3.04.7-5.44,3.8-6.36,6.64-.93,2.88-.3,5.86,1.76,8.09,1.98,2.15,4.71,3.16,7.52,3.55-3.3.57-6.5,1.75-9.41,3.39-1.25.71-8.12,4.49-5.71,6.54.91.77,2.67.9,4.01.9.27,0,.53,0,.75-.01,1.9-.06,3.79-.51,5.55-1.23,4.51-1.83,8.04-5.35,11.4-8.76.57-.24,1.14-.5,1.69-.77,2.16-.15,4.31-.38,6.43-.64,7.93-.96,9.11-2.75,15.31-2.75.98,0,2.08.04,3.35.14,0,0,0,0,.01,0,.18,0,.09-.37-.07-.39-1.57-.22-2.71-.39-4.04-.39-1.06,0-2.23.11-3.83.39-2.47-3.53-5.7-6.43-9.51-8.45-1.86-.98-3.83-1.75-5.86-2.26-1.1-.28-2.26-.56-3.4-.56-.69,0-1.36.1-2.02.37-.21.09-.13.41-.03.54,4.17,5.69,10.8,10.06,17.92,10.93-3.12.61-6.23,1.22-9.34,1.55-2.96.32-6.18.75-9.34.75-2.13,0-4.23-.2-6.2-.75-2.85-.81-5.75-2.82-6.44-5.87-.61-2.71.7-5.57,2.49-7.56,1.15-1.28,3-2.55,4.77-2.55.88,0,1.73.31,2.46,1.08,1.55,1.63,1.04,4.11-.72,5.29-.56.38-1.22.61-1.9.61-.18,0-.36-.02-.55-.05-1.04-.2-.8-.4-.99-1.63-.59-.89-.52-1.41.23-1.55.21-.13.41-.2.6-.2.48,0,.87.44,1.18,1.31,0,.21.24.47.43.47.09,0,.16-.06.19-.21.23-1.35-.96-2.53-2.16-2.53-.5,0-1.01.21-1.41.7-1.61,1.95.31,4.56,2.5,4.69.08,0,.16,0,.24,0,2.64,0,4.56-2.75,4.04-5.27-.45-2.18-2.4-3.7-4.53-3.7h0ZM412.29,35.19c-1.02-.15-2.04-.3-3.05-.55-2-.5-3.94-1.23-5.76-2.18-3.51-1.82-6.52-4.41-8.88-7.57.49-.14,1-.2,1.51-.2,1.38,0,2.8.42,4.08.8,1.87.56,3.67,1.33,5.38,2.28,3.3,1.85,6.13,4.4,8.37,7.44-1.12-.26-2.09-1.02-3.08-1.63-1.35-.83-2.71-1.67-4.06-2.5-2.7-1.66-5.38-3.34-8.15-4.88-.03-.02-.05-.02-.07-.02-.12,0-.09.25.01.32,3.11,2.14,6.34,4.09,9.54,6.09,1.39.87,2.76,1.78,4.17,2.61h0ZM393.39,38.99c.58,0,1.16-.01,1.75-.03-.02.02-.04.04-.07.07-2.37.76-4.69,1.71-7.02,2.59-3.71,1.41-7.49,2.73-11.11,4.37-.18.08-.04.42.14.42.01,0,.03,0,.04,0,3.7-1.14,7.31-2.59,10.94-3.92,1.83-.67,3.68-1.29,5.51-1.97-4.18,4.11-9.19,8.22-15.11,8.22-.72,0-1.46-.06-2.21-.19-.3-.05-.71-.08-.99-.21-1.08-.51-.77-1-.1-1.77.54-.63,1.2-1.15,1.85-1.64,1.55-1.17,3.22-2.19,4.97-3.03,3.2-1.55,6.61-2.43,10.11-2.92.43.01.86.02,1.28.02h0Z"/><path class="b" d="M378,40.6c-.44,0-.89-.01-1.34-.04.36.01.73.02,1.1.02.67,0,1.35-.02,2.01-.05-.58.05-1.18.08-1.78.08Z"/><path d="M363.66,31.88c-1.64,0-3.17.36-4.35,1.38-.17.15,0,.48.12.59,4.82,4.19,11.84,7.24,18.57,7.24,2.15,0,4.26-.31,6.27-.99.14.09.28.18.42.27.07.04.12.06.17.06.27,0,.21-.63-.07-.81-4.1-2.69-8.56-4.78-13.28-6.13-2.16-.62-5.15-1.6-7.86-1.6h0ZM377.76,40.07c-2.14,0-4.26-.19-6.44-.72-4.14-1.01-7.97-2.97-11.23-5.71.96-.68,2.07-.9,3.22-.9,1.06,0,2.14.19,3.16.36,2.11.37,4.19.88,6.23,1.53,3.85,1.22,7.52,2.96,10.94,5.08-2,.2-3.94.36-5.89.36h0Z"/><path class="b" d="M336.29,55.22c-.27,0-.54-.04-.81-.1-1.94-.45-3.58-1.94-4.7-3.65.26.36.54.72.85,1.06,1.08,1.21,2.83,2.49,4.65,2.69ZM335.54,51.64c-.35,0-.66-.13-.92-.4.13.09.29.17.51.22.15.08.3.15.44.18h-.02ZM334.21,50.64c-.31-.67-.14-1.3.01-1.65.13-.29.31-.57.53-.8-.04.16-.07.34-.09.56-.01.14-.03.31-.06.5-.35.55-.48,1.01-.39,1.39ZM339.73,48.8c-.26-.32-.57-.61-.93-.85-.67-.46-1.43-.7-2.18-.7h-.04s.22-.01.29-.01c1.03,0,1.99.48,2.69,1.34.06.07.11.14.16.21ZM366.52,40.88c-.87-.15-1.74-.31-2.59-.47l.03-.04c.85.17,1.71.34,2.56.51ZM363.4,40.26s.01,0,.02,0h-.04s.02,0,.02,0ZM360.93,39.82c-2.88-.57-6.15-1.21-9.38-1.56l-1.38-.15c-.87-.1-1.74-.2-2.63-.29,1.57.13,3.28.3,5.4.56,3.2.39,6.46,1.05,9.61,1.7.12.03.25.05.37.08l-.17.02-1.83-.36ZM345.37,37.63l-.68-.69c.56.24,1.12.49,1.66.76l.03.02c-.34-.03-.68-.06-1.02-.08ZM340.47,37.52l.17.03c-.21.01-.42.02-.63.04l.46-.06Z"/><path d="M327.18,26.47c-1.34,0-3.1.13-4.01.9-2.42,2.05,4.45,5.83,5.71,6.54,2.91,1.64,6.11,2.82,9.41,3.39-2.82.39-5.55,1.4-7.52,3.55-2.06,2.24-2.69,5.21-1.76,8.09.92,2.84,3.31,5.94,6.36,6.64.34.08.68.12,1.02.12,2.14,0,4.08-1.52,4.53-3.7.52-2.52-1.4-5.27-4.04-5.27-.08,0-.16,0-.24,0-2.19.14-4.11,2.74-2.5,4.69.4.49.91.7,1.41.7,1.2,0,2.39-1.18,2.16-2.53-.03-.15-.1-.21-.19-.21-.18,0-.43.26-.43.47-.31.87-.7,1.31-1.18,1.31-.19,0-.39-.07-.6-.2-.75-.14-.83-.66-.23-1.55.2-1.22-.04-1.43.99-1.63.18-.04.37-.05.55-.05.68,0,1.34.23,1.9.61,1.76,1.19,2.27,3.66.72,5.29-.74.77-1.59,1.08-2.46,1.08-1.77,0-3.62-1.27-4.77-2.55-1.79-1.99-3.1-4.85-2.49-7.56.69-3.05,3.59-5.06,6.44-5.87,1.97-.56,4.07-.75,6.2-.75,3.16,0,6.38.43,9.34.75,3.11.34,6.22.94,9.34,1.55-7.11.87-13.75,5.24-17.92,10.93-.1.13-.17.45.03.54.65.27,1.33.37,2.02.37,1.14,0,2.3-.28,3.4-.56,2.04-.51,4.01-1.28,5.86-2.26,3.81-2.02,7.04-4.93,9.51-8.45,4,.76,8.02,1.41,12.05,1.41,1.59,0,3.19-.1,4.79-.34.15-.02.24-.39.07-.39,0,0,0,0-.01,0-.91.07-1.82.1-2.73.1-8.39,0-16.61-2.78-24.89-3.78-2.12-.26-4.27-.49-6.43-.64-.56-.27-1.12-.53-1.69-.77-3.36-3.42-6.89-6.94-11.4-8.76-1.76-.71-3.65-1.17-5.55-1.23-.23,0-.48-.01-.75-.01h0ZM341.14,37.11c-3.5-.49-6.91-1.36-10.11-2.92-1.75-.85-3.42-1.86-4.97-3.03-.66-.5-1.31-1.02-1.85-1.64-.66-.77-.97-1.26.1-1.77.28-.13.69-.16.99-.21.75-.13,1.49-.19,2.21-.19,5.92,0,10.93,4.11,15.11,8.22-1.83-.69-3.68-1.31-5.51-1.98-3.63-1.33-7.25-2.77-10.94-3.92-.01,0-.03,0-.04,0-.18,0-.33.34-.14.42,3.62,1.64,7.39,2.97,11.11,4.37,2.33.88,4.65,1.83,7.02,2.59.02.02.04.04.07.07-.58-.02-1.17-.03-1.75-.03-.43,0-.86,0-1.28.02h0ZM362.96,40.88c-2.24,3.04-5.07,5.59-8.37,7.44-1.7.95-3.51,1.73-5.38,2.28-1.27.38-2.7.8-4.08.8-.51,0-1.02-.06-1.51-.2,2.36-3.16,5.37-5.75,8.88-7.57,1.83-.95,3.77-1.68,5.76-2.18,1.01-.25,2.03-.4,3.05-.55-1.41.83-2.78,1.74-4.17,2.61-3.2,2-6.43,3.95-9.54,6.09-.11.07-.13.32-.01.32.02,0,.04,0,.07-.02,2.77-1.53,5.45-3.22,8.15-4.88,1.35-.83,2.71-1.67,4.06-2.5.99-.61,1.96-1.37,3.08-1.63h0Z"/><path class="b" d="M328.66,35.7c-.67-.03-1.34-.05-2.01-.05-.37,0-.74,0-1.11.02.45-.03.9-.04,1.34-.04.6,0,1.2.02,1.78.07Z"/><path d="M326.88,35.12c-6.73,0-13.75,3.05-18.57,7.24-.13.11-.29.44-.12.59,1.18,1.02,2.71,1.38,4.35,1.38,2.7,0,5.7-.98,7.86-1.6,4.72-1.35,9.18-3.44,13.28-6.13.28-.18.33-.81.07-.81-.05,0-.1.02-.17.06-.14.09-.28.18-.43.27-2.01-.68-4.13-.99-6.27-.99h0ZM312.2,43.49c-1.15,0-2.26-.22-3.22-.9,3.26-2.74,7.08-4.7,11.23-5.71,2.18-.53,4.31-.72,6.44-.72,1.94,0,3.89.16,5.89.36-3.43,2.13-7.09,3.86-10.94,5.09-2.04.65-4.13,1.16-6.23,1.53-1.01.18-2.1.36-3.16.36h0Z"/><path class="b" d="M294.53,39.62h-.39c.48-.04.96-.08,1.44-.12l-.03.02c-.55.27-1.1.52-1.66.76l.64-.65ZM289.21,39.63c.21.01.42.03.63.04l-.17.03-.46-.06ZM296.74,39.39c.89-.09,1.77-.19,2.64-.29l1.38-.15c3.23-.35,6.5-1,9.38-1.56l1.82-.36.17.02c-.12.02-.24.05-.36.07-3.15.65-6.41,1.31-9.61,1.7-1.5.18-3.4.4-5.4.56ZM312.57,36.94h.04s-.01.01-.02.01h-.02ZM313.13,36.8c.85-.16,1.72-.32,2.59-.47-.86.16-1.71.33-2.56.51l-.03-.04ZM285.78,29.95h.03c.75,0,1.51-.24,2.18-.7.35-.24.67-.53.93-.85-.05.07-.1.14-.16.21-.71.87-1.66,1.34-2.69,1.34-.07,0-.26-.01-.29-.01ZM283.95,29.02c-.22-.24-.4-.51-.53-.8-.15-.35-.32-.98-.01-1.65-.09.38.04.84.39,1.39.03.19.05.36.06.5.02.22.05.4.09.56ZM283.82,25.97c.26-.26.57-.4.92-.4,0,0,.02,0,.02,0-.15.04-.29.1-.44.18-.21.05-.38.13-.51.21ZM279.97,25.75c1.12-1.71,2.76-3.21,4.7-3.66.26-.06.53-.09.8-.1-1.82.2-3.57,1.48-4.65,2.69-.31.35-.6.7-.86,1.07Z"/><path d="M285.58,21.49c-.34,0-.68.04-1.02.12-3.04.7-5.44,3.8-6.36,6.64-.93,2.88-.3,5.86,1.76,8.09,1.98,2.15,4.71,3.16,7.52,3.55-3.3.57-6.5,1.75-9.41,3.39-1.25.71-8.12,4.49-5.71,6.54.91.77,2.67.9,4.01.9.27,0,.53,0,.75-.01,1.9-.05,3.79-.51,5.55-1.23,4.51-1.83,8.04-5.35,11.4-8.76.57-.24,1.14-.5,1.69-.77,2.16-.15,4.31-.38,6.43-.64,8.28-1,16.51-3.78,24.89-3.78.91,0,1.82.03,2.73.1,0,0,0,0,.01,0,.18,0,.09-.37-.07-.39-1.6-.24-3.19-.34-4.79-.34-4.03,0-8.04.65-12.05,1.41-2.47-3.53-5.7-6.43-9.51-8.45-1.86-.98-3.83-1.75-5.86-2.26-1.1-.28-2.26-.56-3.4-.56-.69,0-1.36.1-2.02.37-.21.09-.13.41-.03.54,4.17,5.69,10.8,10.06,17.92,10.93-3.12.61-6.23,1.22-9.34,1.55-2.96.32-6.18.75-9.34.75-2.13,0-4.23-.2-6.2-.75-2.85-.81-5.75-2.82-6.44-5.87-.61-2.71.7-5.57,2.49-7.56,1.15-1.28,3-2.55,4.77-2.55.87,0,1.73.31,2.46,1.08,1.55,1.63,1.04,4.11-.72,5.29-.56.38-1.22.61-1.9.61-.18,0-.36-.02-.55-.05-1.04-.2-.8-.4-.99-1.63-.59-.89-.52-1.41.23-1.55.21-.13.41-.2.6-.2.48,0,.87.44,1.18,1.31,0,.21.24.47.43.47.09,0,.16-.06.19-.21.23-1.35-.96-2.53-2.16-2.53-.5,0-1.01.21-1.41.7-1.61,1.95.31,4.56,2.5,4.69.08,0,.16,0,.24,0,2.64,0,4.56-2.75,4.04-5.27-.45-2.18-2.4-3.7-4.53-3.7h0ZM310.52,36.31c-1.02-.15-2.04-.3-3.05-.55-2-.5-3.94-1.23-5.76-2.18-3.51-1.82-6.52-4.41-8.88-7.57.49-.14,1-.2,1.51-.2,1.38,0,2.8.42,4.08.8,1.87.56,3.67,1.33,5.38,2.28,3.3,1.85,6.13,4.4,8.37,7.44-1.12-.26-2.09-1.02-3.08-1.63-1.35-.83-2.71-1.67-4.06-2.5-2.7-1.66-5.38-3.34-8.15-4.88-.03-.02-.05-.02-.07-.02-.12,0-.09.25.01.32,3.11,2.14,6.34,4.09,9.54,6.09,1.39.87,2.76,1.78,4.17,2.61h0ZM291.62,40.12c.58,0,1.16-.01,1.75-.03-.02.02-.04.04-.07.07-2.37.76-4.69,1.71-7.02,2.59-3.71,1.41-7.49,2.73-11.11,4.37-.18.08-.04.42.14.42.01,0,.03,0,.04,0,3.7-1.14,7.31-2.59,10.94-3.92,1.83-.67,3.68-1.29,5.51-1.98-4.18,4.11-9.19,8.22-15.11,8.22-.72,0-1.46-.06-2.21-.19-.3-.05-.71-.08-.99-.21-1.08-.51-.77-1-.1-1.77.54-.63,1.2-1.15,1.85-1.64,1.55-1.17,3.22-2.19,4.97-3.03,3.2-1.55,6.61-2.43,10.11-2.92.43.01.86.02,1.29.02h0Z"/><path class="b" d="M276.08,41.59c-.44,0-.89-.01-1.34-.04.36.01.73.02,1.1.02.67,0,1.35-.02,2.01-.05-.58.05-1.18.08-1.78.08Z"/><path d="M261.74,32.87c-1.64,0-3.17.36-4.35,1.38-.17.15,0,.48.12.59,4.82,4.19,11.84,7.24,18.57,7.24,2.15,0,4.26-.31,6.27-.99.14.09.28.18.43.27.07.04.12.06.17.06.27,0,.21-.63-.07-.81-4.1-2.69-8.56-4.78-13.28-6.13-2.16-.62-5.15-1.6-7.86-1.6h0ZM275.85,41.06c-2.14,0-4.26-.19-6.44-.72-4.14-1.01-7.97-2.97-11.23-5.71.96-.68,2.07-.9,3.22-.9,1.06,0,2.14.19,3.16.36,2.11.37,4.19.88,6.23,1.53,3.85,1.22,7.52,2.96,10.94,5.09-2,.2-3.94.36-5.89.36h0Z"/><path class="b" d="M234.37,56.21c-.27,0-.54-.04-.81-.1-1.94-.45-3.58-1.94-4.7-3.65.26.36.54.72.85,1.06,1.08,1.21,2.83,2.49,4.65,2.69ZM233.63,52.63c-.35,0-.66-.13-.92-.4.13.09.29.17.51.22.15.08.3.15.44.18h-.02ZM232.3,51.63c-.31-.67-.14-1.3.01-1.65.13-.29.31-.57.53-.8-.04.16-.07.34-.09.56-.02.14-.03.31-.06.5-.35.55-.48,1.01-.39,1.39ZM237.81,49.79c-.26-.32-.57-.61-.93-.85-.67-.46-1.43-.7-2.18-.7h-.04s.22-.01.29-.01c1.03,0,1.99.48,2.69,1.34.06.07.11.14.16.21ZM264.62,41.87c-.88-.15-1.75-.31-2.6-.47l.03-.04c.85.17,1.71.34,2.58.51ZM261.49,41.25s.01,0,.02,0h-.05s.02,0,.02,0ZM259.02,40.81c-2.88-.57-6.15-1.21-9.38-1.56l-1.38-.15c-.87-.1-1.75-.2-2.63-.29,2,.16,3.91.38,5.4.56,3.2.39,6.46,1.06,9.61,1.7.12.03.25.05.37.08l-.17.02-1.83-.36ZM243.45,38.62l-.68-.69c.56.24,1.12.49,1.66.76l.03.02c-.34-.03-.68-.06-1.02-.08ZM238.55,38.5c.06,0,.11.02.17.03-.21.01-.42.02-.63.04l.46-.06Z"/><path d="M225.27,27.46c-1.34,0-3.1.13-4.01.9-2.42,2.05,4.45,5.83,5.71,6.54,2.91,1.64,6.11,2.82,9.41,3.39-2.82.39-5.55,1.4-7.52,3.55-2.06,2.24-2.69,5.21-1.76,8.09.92,2.84,3.31,5.94,6.36,6.64.34.08.68.12,1.02.12,2.14,0,4.08-1.52,4.53-3.7.52-2.52-1.4-5.27-4.04-5.27-.08,0-.16,0-.24,0-2.19.14-4.11,2.74-2.5,4.69.4.49.91.7,1.41.7,1.2,0,2.39-1.18,2.16-2.53-.03-.15-.1-.21-.19-.21-.18,0-.43.26-.43.47-.31.87-.7,1.31-1.18,1.31-.19,0-.39-.07-.6-.2-.75-.14-.83-.66-.23-1.55.2-1.22-.04-1.43.99-1.63.18-.04.36-.05.55-.05.68,0,1.34.23,1.9.61,1.76,1.19,2.27,3.66.72,5.29-.74.77-1.59,1.08-2.46,1.08-1.77,0-3.62-1.27-4.77-2.55-1.78-1.99-3.1-4.85-2.49-7.56.69-3.05,3.59-5.06,6.44-5.87,1.97-.56,4.07-.75,6.2-.75,3.16,0,6.38.43,9.34.75,3.11.34,6.22.94,9.34,1.55-7.11.87-13.75,5.24-17.92,10.93-.1.13-.17.45.03.54.65.27,1.33.37,2.02.37,1.14,0,2.3-.28,3.4-.56,2.04-.51,4.01-1.28,5.86-2.26,3.81-2.02,7.04-4.93,9.51-8.45,4,.76,8.02,1.41,12.05,1.41,1.59,0,3.19-.1,4.79-.34.15-.02.24-.39.07-.39,0,0,0,0-.01,0-.91.07-1.82.1-2.73.1-8.39,0-16.61-2.78-24.89-3.78-2.12-.26-4.27-.49-6.43-.64-.56-.27-1.12-.53-1.69-.77-3.36-3.42-6.89-6.94-11.4-8.76-1.76-.71-3.65-1.17-5.55-1.23-.23,0-.48-.01-.75-.01h0ZM239.22,38.1c-3.5-.49-6.91-1.36-10.11-2.92-1.75-.85-3.42-1.86-4.97-3.03-.66-.5-1.31-1.02-1.85-1.64-.66-.77-.97-1.26.1-1.77.28-.13.69-.16.99-.21.75-.13,1.49-.19,2.21-.19,5.92,0,10.93,4.11,15.11,8.22-1.83-.69-3.68-1.31-5.51-1.98-3.63-1.33-7.25-2.77-10.94-3.92-.01,0-.03,0-.04,0-.18,0-.33.34-.14.42,3.62,1.64,7.39,2.97,11.11,4.37,2.33.88,4.65,1.83,7.02,2.59.02.02.04.04.07.07-.58-.02-1.17-.03-1.75-.03-.43,0-.86,0-1.28.02h0ZM261.04,41.87c-2.24,3.04-5.07,5.59-8.37,7.44-1.7.95-3.51,1.73-5.38,2.28-1.27.38-2.7.8-4.08.8-.51,0-1.02-.06-1.51-.2,2.36-3.16,5.37-5.75,8.88-7.57,1.83-.95,3.77-1.68,5.76-2.18,1.01-.25,2.03-.4,3.05-.55-1.41.83-2.78,1.74-4.17,2.61-3.2,2-6.43,3.95-9.54,6.09-.11.07-.13.32-.01.32.02,0,.04,0,.07-.02,2.77-1.53,5.45-3.22,8.15-4.88,1.35-.83,2.71-1.67,4.06-2.5.99-.61,1.96-1.37,3.08-1.63h0Z"/><path class="b" d="M226.76,36.69c-.67-.03-1.35-.05-2.03-.05-.38,0-.75,0-1.12.02.45-.03.91-.04,1.35-.04.61,0,1.2.03,1.79.08Z"/><path d="M224.97,36.11c-6.73,0-13.75,3.05-18.57,7.24-.12.11-.29.44-.12.59,1.18,1.02,2.71,1.38,4.35,1.38,2.7,0,5.7-.98,7.86-1.6,4.72-1.35,9.18-3.44,13.28-6.13.28-.18.33-.81.07-.81-.05,0-.1.02-.17.06-.14.09-.28.18-.43.27-2.01-.68-4.12-.99-6.27-.99h0ZM210.29,44.48c-1.15,0-2.26-.22-3.22-.9,3.26-2.74,7.08-4.7,11.23-5.71,2.18-.53,4.31-.72,6.44-.72,1.94,0,3.89.16,5.89.36-3.43,2.13-7.09,3.86-10.94,5.09-2.04.65-4.13,1.16-6.23,1.53-1.01.18-2.1.36-3.16.36h0Z"/><path class="b" d="M190.75,40.48c.35-.02.69-.05,1.04-.08l-.03.02c-.55.27-1.11.52-1.67.76l.66-.69ZM185.4,40.53c.21.01.42.03.64.04-.06,0-.12.02-.17.03l-.46-.06ZM192.95,40.28c.88-.09,1.76-.19,2.62-.29l1.38-.15c3.22-.35,6.49-.99,9.38-1.56l1.82-.36.17.02c-.12.02-.24.05-.36.07-3.15.65-6.41,1.31-9.61,1.7-1.49.18-3.4.4-5.4.56ZM208.77,37.83h.05s-.01.01-.02.02l-.03-.02ZM209.33,37.7c.86-.16,1.73-.32,2.61-.47-.86.17-1.72.34-2.58.51l-.03-.04ZM181.98,30.85h.03c.75,0,1.51-.24,2.18-.7.35-.24.67-.53.93-.85-.05.07-.11.14-.16.21-.71.87-1.66,1.34-2.69,1.34-.07,0-.27-.01-.29-.01ZM180.15,29.91c-.22-.24-.4-.51-.53-.8-.15-.35-.32-.98-.01-1.65-.09.38.04.84.39,1.39.03.19.05.36.06.5.02.22.05.4.09.56ZM180.02,26.86c.26-.26.57-.4.92-.4,0,0,.02,0,.02,0-.15.04-.29.1-.44.18-.21.05-.38.13-.51.21ZM176.18,26.64c1.12-1.71,2.76-3.21,4.7-3.65.26-.06.54-.1.81-.1-1.82.2-3.57,1.48-4.65,2.69-.31.35-.6.7-.86,1.07Z"/><path d="M181.78,22.39c-.34,0-.68.04-1.02.12-3.04.7-5.44,3.8-6.36,6.64-.93,2.88-.3,5.86,1.76,8.09,1.98,2.15,4.71,3.16,7.52,3.55-3.3.57-6.5,1.75-9.41,3.39-1.25.71-8.12,4.49-5.71,6.54.91.77,2.67.9,4.01.9.27,0,.53,0,.75-.01,1.9-.05,3.79-.51,5.55-1.23,4.51-1.83,8.04-5.35,11.4-8.76.57-.24,1.14-.5,1.69-.77,2.16-.15,4.31-.38,6.43-.64,8.28-1,16.51-3.78,24.89-3.78.91,0,1.82.03,2.73.1,0,0,0,0,.01,0,.18,0,.09-.37-.07-.39-1.6-.24-3.19-.34-4.79-.34-4.03,0-8.04.65-12.05,1.41-2.47-3.53-5.7-6.43-9.51-8.45-1.86-.98-3.83-1.75-5.86-2.26-1.1-.28-2.26-.56-3.4-.56-.69,0-1.36.1-2.02.37-.21.09-.13.41-.03.54,4.17,5.69,10.81,10.06,17.92,10.93-3.12.61-6.23,1.22-9.34,1.55-2.96.32-6.18.75-9.34.75-2.13,0-4.23-.2-6.2-.75-2.85-.81-5.75-2.82-6.44-5.87-.61-2.71.7-5.57,2.49-7.56,1.15-1.28,3-2.55,4.77-2.55.88,0,1.73.31,2.46,1.08,1.55,1.63,1.04,4.11-.72,5.29-.56.38-1.22.61-1.9.61-.18,0-.36-.02-.55-.05-1.04-.2-.8-.4-.99-1.63-.6-.89-.52-1.41.23-1.55.21-.13.41-.2.6-.2.48,0,.87.44,1.18,1.31,0,.21.24.47.43.47.09,0,.16-.06.19-.21.23-1.35-.96-2.53-2.16-2.53-.5,0-1.01.21-1.41.7-1.61,1.95.31,4.56,2.5,4.69.08,0,.16,0,.24,0,2.64,0,4.56-2.75,4.04-5.27-.45-2.18-2.4-3.7-4.53-3.7h0ZM206.73,37.21c-1.02-.15-2.04-.3-3.05-.55-2-.5-3.94-1.23-5.76-2.18-3.51-1.82-6.52-4.41-8.88-7.57.49-.14,1-.2,1.51-.2,1.38,0,2.8.42,4.08.8,1.87.56,3.67,1.33,5.38,2.28,3.3,1.85,6.13,4.4,8.37,7.44-1.12-.26-2.09-1.02-3.08-1.63-1.35-.83-2.71-1.67-4.06-2.5-2.7-1.66-5.38-3.34-8.15-4.88-.03-.02-.05-.02-.07-.02-.12,0-.09.25.01.32,3.11,2.14,6.34,4.09,9.54,6.09,1.39.87,2.76,1.78,4.17,2.61h0ZM187.82,41.01c.58,0,1.16-.01,1.75-.03-.02.02-.04.05-.07.07-2.37.76-4.69,1.71-7.02,2.59-3.71,1.41-7.49,2.73-11.11,4.37-.18.08-.04.42.14.42.01,0,.03,0,.04,0,3.7-1.14,7.31-2.59,10.94-3.92,1.83-.67,3.68-1.29,5.51-1.98-4.18,4.11-9.19,8.22-15.11,8.22-.72,0-1.46-.06-2.21-.19-.3-.05-.71-.08-.99-.21-1.08-.51-.77-1-.1-1.77.54-.63,1.2-1.15,1.85-1.64,1.55-1.17,3.22-2.19,4.97-3.03,3.2-1.55,6.61-2.43,10.11-2.92.43.01.86.02,1.28.02h0Z"/><path class="b" d="M172.29,42.48c-.45,0-.9-.01-1.36-.04.37.01.74.02,1.12.02.67,0,1.35-.02,2.02-.05-.58.05-1.18.08-1.78.08Z"/><path d="M157.95,33.77c-1.64,0-3.17.36-4.35,1.38-.17.15,0,.48.12.59,4.82,4.19,11.84,7.24,18.57,7.24,2.15,0,4.26-.31,6.27-.99.14.09.28.18.43.27.06.04.12.06.17.06.27,0,.21-.63-.07-.81-4.1-2.69-8.56-4.78-13.28-6.13-2.16-.62-5.15-1.6-7.86-1.6h0ZM172.05,41.96c-2.13,0-4.26-.19-6.44-.72-4.14-1.01-7.97-2.97-11.23-5.71.96-.68,2.07-.9,3.22-.9,1.06,0,2.14.19,3.16.36,2.11.37,4.19.88,6.23,1.53,3.85,1.22,7.52,2.96,10.94,5.09-2,.2-3.94.36-5.89.36h0Z"/><path class="b" d="M130.57,57.1c-.27,0-.54-.04-.8-.1-1.95-.45-3.58-1.95-4.7-3.66.26.37.55.72.86,1.07,1.08,1.2,2.83,2.48,4.65,2.69ZM129.83,53.52c-.35,0-.66-.13-.92-.4.13.09.29.17.51.21.15.08.3.15.44.18h-.02ZM128.5,52.52c-.31-.67-.14-1.3.01-1.65.13-.29.31-.57.53-.8-.04.16-.07.34-.09.56-.02.14-.03.31-.06.5-.35.55-.48,1.01-.39,1.39ZM134.02,50.69c-.26-.32-.57-.61-.93-.85-.67-.46-1.43-.7-2.18-.7h-.03s.22-.01.29-.01c1.03,0,1.99.48,2.69,1.34.06.07.11.14.16.21ZM160.83,42.77c-.88-.15-1.75-.31-2.61-.47l.03-.04c.86.17,1.72.35,2.58.51ZM157.69,42.14s.01,0,.02,0h-.05s.03,0,.03,0ZM155.22,41.71c-2.89-.57-6.16-1.21-9.38-1.56l-1.38-.16c-.87-.1-1.74-.2-2.62-.29,2,.16,3.9.38,5.4.56,3.2.39,6.46,1.05,9.61,1.7.12.03.24.05.37.08l-.17.02-1.82-.36ZM139.7,39.52l-.7-.69c.55.24,1.11.48,1.65.75l.03.02c-.32-.03-.65-.05-.98-.08ZM134.75,39.4c.06,0,.12.02.17.03-.21,0-.43.02-.64.04l.46-.06Z"/><path d="M121.47,28.36c-1.34,0-3.1.13-4.01.9-2.42,2.05,4.45,5.83,5.71,6.54,2.91,1.64,6.11,2.82,9.41,3.39-2.82.39-5.55,1.4-7.52,3.55-2.06,2.24-2.69,5.21-1.76,8.09.92,2.84,3.31,5.94,6.36,6.64.34.08.68.12,1.02.12,2.14,0,4.08-1.52,4.53-3.7.52-2.52-1.4-5.27-4.04-5.27-.08,0-.16,0-.24,0-2.19.14-4.11,2.74-2.5,4.69.4.49.91.7,1.41.7,1.2,0,2.39-1.18,2.16-2.53-.03-.15-.1-.21-.19-.21-.18,0-.43.26-.43.47-.31.87-.7,1.31-1.18,1.31-.19,0-.39-.07-.6-.2-.75-.14-.83-.66-.23-1.55.2-1.22-.04-1.43.99-1.63.18-.04.36-.05.55-.05.68,0,1.34.23,1.9.61,1.76,1.19,2.27,3.66.72,5.29-.74.77-1.59,1.08-2.46,1.08-1.77,0-3.62-1.27-4.77-2.55-1.79-1.99-3.1-4.85-2.49-7.56.69-3.05,3.59-5.06,6.44-5.87,1.97-.56,4.07-.75,6.2-.75,3.16,0,6.38.43,9.34.75,3.11.34,6.22.94,9.34,1.55-7.11.87-13.75,5.24-17.92,10.93-.1.13-.17.45.03.54.65.27,1.33.37,2.02.37,1.14,0,2.3-.28,3.4-.56,2.04-.51,4.01-1.28,5.86-2.26,3.81-2.02,7.04-4.93,9.51-8.45,4,.76,8.02,1.41,12.05,1.41,1.59,0,3.19-.1,4.79-.34.15-.02.24-.39.07-.39,0,0,0,0-.01,0-.91.07-1.82.1-2.73.1-8.39,0-16.61-2.78-24.89-3.78-2.12-.26-4.27-.49-6.43-.64-.56-.27-1.12-.53-1.69-.77-3.36-3.42-6.89-6.94-11.4-8.76-1.76-.71-3.65-1.17-5.55-1.23-.23,0-.48-.01-.75-.01h0ZM135.42,38.99c-3.5-.49-6.91-1.36-10.11-2.92-1.75-.85-3.42-1.86-4.97-3.03-.66-.5-1.31-1.02-1.85-1.64-.66-.77-.97-1.26.1-1.77.28-.13.69-.16.99-.21.75-.13,1.49-.19,2.21-.19,5.92,0,10.93,4.11,15.11,8.22-1.83-.69-3.68-1.31-5.51-1.98-3.63-1.33-7.25-2.77-10.94-3.92-.01,0-.03,0-.04,0-.18,0-.33.34-.14.42,3.62,1.64,7.39,2.97,11.11,4.37,2.33.88,4.65,1.83,7.02,2.59.02.02.04.04.07.07-.58-.02-1.17-.03-1.75-.03-.43,0-.86,0-1.29.02h0ZM157.25,42.77c-2.24,3.04-5.07,5.59-8.37,7.44-1.7.95-3.51,1.73-5.38,2.28-1.27.38-2.7.8-4.08.8-.51,0-1.02-.06-1.51-.2,2.36-3.16,5.37-5.75,8.88-7.57,1.83-.95,3.77-1.68,5.76-2.18,1.01-.25,2.03-.4,3.05-.55-1.41.83-2.78,1.74-4.17,2.61-3.2,2-6.43,3.95-9.54,6.09-.11.07-.13.32-.01.32.02,0,.04,0,.07-.02,2.77-1.53,5.45-3.22,8.15-4.88,1.35-.83,2.71-1.67,4.06-2.5.99-.61,1.96-1.37,3.08-1.63h0Z"/><path class="b" d="M122.95,37.58c-.66-.03-1.34-.05-2.01-.05-.37,0-.74,0-1.11.02.45-.03.9-.04,1.34-.04.6,0,1.2.02,1.78.07Z"/><path d="M121.17,37.01c-6.73,0-13.75,3.05-18.57,7.24-.12.11-.29.44-.12.59,1.18,1.02,2.71,1.38,4.35,1.38,2.7,0,5.7-.98,7.86-1.6,4.72-1.35,9.18-3.44,13.28-6.13.28-.18.33-.81.07-.81-.05,0-.1.02-.17.06-.14.09-.28.18-.42.27-2.01-.68-4.12-.99-6.27-.99h0ZM106.49,45.37c-1.15,0-2.26-.22-3.22-.9,3.26-2.74,7.08-4.7,11.23-5.71,2.18-.53,4.31-.72,6.44-.72,1.94,0,3.89.16,5.89.36-3.43,2.13-7.09,3.86-10.94,5.09-2.04.65-4.13,1.16-6.23,1.53-1.01.18-2.1.36-3.16.36h0Z"/><path class="b" d="M88.82,41.5h-.37c.48-.04.95-.08,1.43-.12l-.03.02c-.55.27-1.1.52-1.66.76l.64-.66ZM83.48,41.51c.21.01.43.03.64.04-.06,0-.12.02-.18.03l-.47-.07ZM91.03,41.27c.88-.09,1.76-.19,2.62-.29l1.38-.15c3.22-.35,6.49-.99,9.38-1.56l1.82-.36.17.02c-.12.02-.24.05-.36.07-3.15.65-6.41,1.31-9.61,1.7-1.49.18-3.4.4-5.4.56ZM106.86,38.82h.05s-.01.01-.02.02l-.03-.02ZM107.42,38.69c.86-.16,1.73-.32,2.61-.47-.86.17-1.72.34-2.58.51l-.03-.04ZM80.07,31.84h.03c.75,0,1.51-.24,2.18-.7.36-.24.67-.53.93-.85-.05.07-.11.14-.16.21-.71.87-1.66,1.34-2.69,1.34-.07,0-.26-.01-.29-.01ZM78.24,30.9c-.22-.24-.4-.51-.53-.8-.15-.35-.32-.97-.01-1.65-.09.38.04.84.39,1.39.03.19.05.36.06.5.02.22.05.4.09.56ZM78.11,27.85c.26-.26.57-.4.92-.4,0,0,.02,0,.02,0-.15.04-.29.1-.44.18-.21.05-.38.13-.51.21ZM74.27,27.63c1.12-1.7,2.75-3.2,4.7-3.65.26-.06.53-.1.8-.1-1.82.2-3.57,1.48-4.65,2.69-.31.34-.59.7-.85,1.06Z"/><path d="M79.87,23.38c-.34,0-.68.04-1.02.12-3.04.7-5.44,3.8-6.36,6.64-.93,2.88-.3,5.86,1.76,8.09,1.98,2.15,4.71,3.16,7.52,3.55-3.3.57-6.5,1.75-9.41,3.39-1.25.71-8.12,4.49-5.71,6.54.91.77,2.67.9,4.01.9.27,0,.53,0,.75-.01,1.9-.06,3.79-.51,5.55-1.23,4.51-1.83,8.04-5.35,11.4-8.76.57-.24,1.14-.5,1.69-.77,2.16-.15,4.31-.38,6.43-.64,8.28-1,16.51-3.78,24.89-3.78.91,0,1.82.03,2.73.1,0,0,0,0,.01,0,.18,0,.09-.37-.07-.39-1.6-.24-3.19-.34-4.79-.34-4.03,0-8.04.65-12.05,1.41-2.47-3.53-5.7-6.43-9.51-8.45-1.86-.98-3.83-1.75-5.86-2.26-1.1-.28-2.26-.56-3.4-.56-.69,0-1.36.1-2.02.37-.21.09-.13.41-.03.54,4.17,5.69,10.8,10.06,17.92,10.93-3.12.61-6.23,1.22-9.34,1.55-2.96.32-6.18.75-9.34.75-2.13,0-4.23-.2-6.2-.75-2.85-.81-5.75-2.82-6.44-5.87-.61-2.71.7-5.57,2.49-7.56,1.15-1.28,3-2.55,4.77-2.55.88,0,1.73.31,2.46,1.08,1.55,1.63,1.04,4.11-.72,5.29-.56.38-1.22.61-1.9.61-.18,0-.36-.02-.55-.05-1.04-.2-.8-.4-.99-1.63-.59-.89-.52-1.41.23-1.55.21-.13.41-.2.6-.2.48,0,.87.44,1.18,1.31,0,.21.24.47.43.47.09,0,.16-.06.19-.21.23-1.35-.96-2.53-2.16-2.53-.5,0-1.01.21-1.41.7-1.61,1.95.31,4.56,2.5,4.69.08,0,.16,0,.24,0,2.64,0,4.56-2.75,4.04-5.27-.45-2.18-2.4-3.7-4.53-3.7h0ZM104.81,38.2c-1.02-.15-2.04-.3-3.05-.55-2-.5-3.94-1.23-5.76-2.18-3.51-1.82-6.52-4.41-8.88-7.57.49-.14,1-.2,1.51-.2,1.38,0,2.8.42,4.08.8,1.87.56,3.67,1.33,5.38,2.28,3.3,1.85,6.13,4.4,8.37,7.44-1.12-.26-2.09-1.02-3.08-1.63-1.35-.83-2.71-1.67-4.06-2.5-2.7-1.66-5.38-3.34-8.15-4.88-.03-.02-.05-.02-.07-.02-.12,0-.09.25.01.32,3.11,2.14,6.34,4.09,9.54,6.09,1.39.87,2.76,1.78,4.17,2.61h0ZM85.91,42c.58,0,1.16-.01,1.75-.03-.02.02-.04.05-.07.07-2.37.76-4.69,1.71-7.02,2.59-3.71,1.41-7.49,2.73-11.11,4.37-.18.08-.04.42.14.42.01,0,.03,0,.04,0,3.7-1.14,7.31-2.59,10.94-3.92,1.83-.67,3.68-1.29,5.51-1.98-4.18,4.11-9.19,8.22-15.11,8.22-.72,0-1.46-.06-2.21-.19-.3-.05-.71-.08-.99-.21-1.08-.51-.77-1-.1-1.77.54-.63,1.2-1.15,1.85-1.64,1.55-1.17,3.22-2.19,4.97-3.03,3.2-1.55,6.61-2.43,10.11-2.92.43.01.86.02,1.28.02h0Z"/><path class="b" d="M70.37,43.47c-.45,0-.9-.01-1.36-.04.37.01.74.02,1.12.02.68,0,1.36-.02,2.02-.05-.59.05-1.19.08-1.79.08Z"/><path d="M56.03,34.76c-1.64,0-3.17.36-4.35,1.38-.17.15,0,.48.12.59,4.82,4.19,11.84,7.24,18.57,7.24,2.15,0,4.26-.31,6.27-.99.14.09.28.18.43.27.07.04.12.06.17.06.27,0,.21-.63-.07-.81-4.1-2.69-8.56-4.78-13.28-6.13-2.16-.62-5.15-1.6-7.86-1.6h0ZM70.14,42.95c-2.14,0-4.26-.19-6.44-.72-4.14-1.01-7.97-2.97-11.23-5.71.96-.68,2.07-.9,3.22-.9,1.06,0,2.14.19,3.16.36,2.11.37,4.19.88,6.23,1.53,3.85,1.22,7.52,2.96,10.94,5.09-2,.2-3.94.36-5.89.36h0Z"/><path class="b" d="M28.66,58.09c-.27,0-.54-.04-.8-.1-1.95-.45-3.58-1.95-4.7-3.65.26.36.55.72.86,1.07,1.08,1.2,2.83,2.48,4.65,2.69ZM27.92,54.51c-.35,0-.66-.13-.92-.4.13.09.29.17.51.22.15.08.3.15.44.18h-.02ZM26.59,53.52c-.31-.67-.14-1.3.01-1.65.13-.29.31-.57.53-.8-.04.16-.07.34-.09.56-.02.14-.03.31-.06.5-.35.55-.48,1.01-.39,1.39ZM32.1,51.67c-.26-.32-.57-.61-.93-.84-.67-.46-1.43-.7-2.18-.7h-.03s.22-.01.29-.01c1.03,0,1.99.48,2.69,1.34.06.07.11.14.16.21ZM58.91,43.75c-.88-.15-1.75-.31-2.6-.47l.03-.04c.85.17,1.71.35,2.58.51ZM55.77,43.13s.01,0,.02,0h-.05s.03,0,.03,0ZM53.31,42.7c-3.48-.68-6.37-1.23-9.38-1.56l-1.39-.16c-.86-.1-1.72-.2-2.6-.28,1.99.16,3.89.38,5.38.56,3.2.39,6.46,1.05,9.61,1.7.12.02.24.05.36.07l-.17.02-1.82-.36ZM37.79,40.51l-.7-.69c.55.24,1.11.48,1.65.75h.03c-.32-.01-.65-.04-.97-.06ZM32.84,40.39c.06,0,.12.02.17.03-.21,0-.43.02-.64.04l.46-.06Z"/><path d="M19.55,29.35c-1.34,0-3.1.13-4.01.9-2.42,2.05,4.45,5.83,5.71,6.54,2.91,1.64,6.11,2.82,9.41,3.39-2.82.39-5.55,1.4-7.52,3.55-2.06,2.24-2.69,5.21-1.76,8.09.92,2.84,3.31,5.94,6.36,6.64.34.08.68.12,1.02.12,2.14,0,4.08-1.52,4.53-3.7.52-2.52-1.4-5.27-4.04-5.27-.08,0-.16,0-.24,0-2.19.14-4.11,2.74-2.5,4.69.4.49.91.7,1.41.7,1.2,0,2.39-1.18,2.16-2.53-.03-.15-.1-.21-.19-.21-.18,0-.43.26-.43.47-.31.87-.7,1.31-1.18,1.31-.19,0-.39-.07-.6-.2-.75-.14-.83-.66-.23-1.55.2-1.22-.04-1.43.99-1.63.18-.04.37-.05.55-.05.68,0,1.34.23,1.9.61,1.76,1.19,2.27,3.66.72,5.29-.74.77-1.59,1.08-2.46,1.08-1.77,0-3.62-1.27-4.77-2.55-1.79-1.99-3.1-4.85-2.49-7.56.69-3.05,3.59-5.06,6.44-5.87,1.97-.56,4.07-.75,6.2-.75,3.16,0,6.38.43,9.34.75,3.11.34,6.22.94,9.34,1.55-7.11.87-13.75,5.24-17.92,10.93-.1.13-.17.45.03.54.65.27,1.33.37,2.02.37,1.14,0,2.3-.28,3.4-.56,2.04-.51,4.01-1.28,5.86-2.26,3.81-2.02,7.04-4.93,9.51-8.45,4,.76,8.02,1.41,12.05,1.41,1.59,0,3.19-.1,4.79-.34.15-.02.24-.39.07-.39,0,0,0,0-.01,0-.91.07-1.82.1-2.73.1-8.39,0-16.61-2.78-24.89-3.78-2.12-.26-4.27-.49-6.43-.64-.56-.27-1.12-.53-1.69-.77-3.36-3.42-6.89-6.94-11.4-8.76-1.76-.71-3.65-1.17-5.55-1.23-.23,0-.48-.01-.75-.01h0ZM33.51,39.98c-3.5-.49-6.91-1.36-10.11-2.92-1.75-.85-3.42-1.86-4.97-3.03-.66-.5-1.31-1.02-1.85-1.64-.66-.77-.97-1.26.1-1.77.28-.13.69-.16.99-.21.75-.13,1.49-.19,2.21-.19,5.92,0,10.93,4.11,15.11,8.22-1.83-.69-3.68-1.31-5.51-1.98-3.63-1.33-7.25-2.77-10.94-3.92-.01,0-.03,0-.04,0-.18,0-.33.34-.14.42,3.62,1.64,7.39,2.97,11.11,4.37,2.33.88,4.65,1.83,7.02,2.59.02.02.04.05.07.07-.58-.02-1.17-.03-1.75-.03-.43,0-.86,0-1.29.02h0ZM55.33,43.76c-2.24,3.04-5.07,5.59-8.37,7.44-1.7.95-3.51,1.73-5.38,2.28-1.27.38-2.7.8-4.08.8-.51,0-1.02-.06-1.51-.2,2.36-3.16,5.37-5.75,8.88-7.57,1.83-.95,3.77-1.68,5.76-2.18,1.01-.25,2.03-.4,3.05-.55-1.41.83-2.78,1.74-4.17,2.61-3.2,2-6.43,3.95-9.54,6.09-.11.07-.13.32-.01.32.02,0,.04,0,.07-.02,2.77-1.53,5.45-3.22,8.15-4.88,1.35-.83,2.71-1.67,4.06-2.5.99-.61,1.96-1.37,3.08-1.63h0Z"/><path class="b" d="M21.04,38.57c-.66-.03-1.34-.05-2.01-.05-.37,0-.74,0-1.11.02.45-.03.9-.04,1.34-.04.6,0,1.2.02,1.78.07Z"/><path d="M19.26,38c-6.73,0-13.75,3.05-18.57,7.24-.13.11-.29.44-.12.59,1.18,1.02,2.71,1.38,4.35,1.38,2.7,0,5.7-.98,7.86-1.6,4.72-1.35,9.18-3.44,13.28-6.13.28-.18.33-.81.07-.81-.05,0-.1.02-.17.06-.14.09-.28.18-.43.27-2.01-.68-4.12-.99-6.27-.99h0ZM4.58,46.36c-1.15,0-2.26-.22-3.22-.9,3.26-2.74,7.08-4.7,11.23-5.71,2.18-.53,4.31-.72,6.44-.72,1.94,0,3.89.16,5.89.36-3.43,2.13-7.09,3.86-10.94,5.09-2.04.65-4.13,1.16-6.23,1.53-1.01.18-2.1.36-3.16.36h0Z"/></svg>